<svg width="564" height="391" viewBox="0 0 564 391" fill="none" xmlns="http://www.w3.org/2000/svg">
<path d="M282.277 390.539C402.948 390.539 500.77 385.226 500.77 378.673C500.77 372.119 402.948 366.807 282.277 366.807C161.607 366.807 63.7847 372.119 63.7847 378.673C63.7847 385.226 161.607 390.539 282.277 390.539Z" fill="#F5F5F5"/>
<path d="M394.121 113.663L382.943 109.47C382.943 109.47 368.192 134.492 363.966 135.76C358.219 137.479 346.319 142.259 339.264 143.098C338.306 144.146 336.74 147.406 336.887 148.591C346.364 151.536 367.189 147.626 371.651 144.544C381.804 137.552 394.121 113.663 394.121 113.663Z" fill="#E58A7B"/>
<path d="M397.558 107.971C399.643 115.13 388.352 129.533 388.352 129.533L373.556 121.818C373.556 121.818 376.328 115.895 379.708 109.868C385.129 100.13 395.181 99.8046 397.558 107.971Z" fill="#4CAF4F"/>
<path opacity="0.2" d="M397.558 107.971C399.643 115.13 388.352 129.533 388.352 129.533L373.556 121.818C373.556 121.818 376.328 115.895 379.708 109.868C385.129 100.13 395.181 99.8046 397.558 107.971Z" fill="black"/>
<path opacity="0.2" d="M379.427 124.9L385.253 127.94L386.278 111.304C382.886 113.726 380.497 121.021 379.427 124.9Z" fill="black"/>
<path d="M387.822 102.583C387.822 102.583 376.305 126.42 383.021 170.803H428.401C429.123 164.325 426.734 132.709 435.377 102.184C430.399 101.279 425.362 100.68 420.299 100.392C413.877 100.046 407.44 100.046 401.018 100.392C396.566 100.812 392.155 101.545 387.822 102.583Z" fill="#4CAF4F"/>
<path opacity="0.2" d="M387.822 102.583C387.822 102.583 376.305 126.42 383.021 170.803H428.401C429.123 164.325 426.734 132.709 435.377 102.184C430.399 101.279 425.362 100.68 420.299 100.392C413.877 100.046 407.44 100.046 401.018 100.392C396.566 100.812 392.155 101.545 387.822 102.583Z" fill="black"/>
<g style="mix-blend-mode:multiply">
<path d="M377.297 379.616C377.229 380.748 394.437 381.66 415.724 381.66C437.011 381.66 454.342 380.748 454.41 379.616C454.478 378.484 437.281 377.583 415.983 377.583C394.685 377.583 377.376 378.495 377.297 379.616Z" fill="#E8ECF1"/>
</g>
<path d="M407.588 349.87L399.54 352.768L406.473 369.429L414.521 366.53L407.588 349.87Z" fill="#E58A7B"/>
<path d="M443.479 371.555H434.994L431.884 353.284H440.369L443.479 371.555Z" fill="#E58A7B"/>
<path d="M434.408 370.643H443.941C444.106 370.644 444.266 370.699 444.392 370.798C444.518 370.898 444.602 371.036 444.629 371.188L445.857 378.201C445.883 378.377 445.868 378.556 445.812 378.726C445.757 378.896 445.663 379.053 445.537 379.186C445.411 379.32 445.256 379.426 445.081 379.498C444.907 379.571 444.718 379.607 444.527 379.606C441.203 379.553 439.603 379.365 435.411 379.365C432.83 379.365 427.522 379.616 423.939 379.616C420.355 379.616 420.119 376.346 421.595 376.042C428.221 374.71 430.79 372.897 432.999 371.136C433.388 370.818 433.889 370.642 434.408 370.643Z" fill="#263238"/>
<path d="M406.235 367.939L415.251 365.486C415.411 365.443 415.583 365.454 415.737 365.515C415.89 365.576 416.017 365.684 416.096 365.821L419.476 372.111C419.555 372.27 419.595 372.444 419.594 372.619C419.593 372.795 419.551 372.968 419.47 373.127C419.39 373.285 419.273 373.426 419.128 373.538C418.983 373.651 418.814 373.732 418.631 373.777C415.352 374.616 413.155 375.13 409.053 376.241C406.224 377.006 403.339 378.253 400.545 379.082C398.606 379.658 394.054 379.679 391.699 379.679C388.216 379.679 387.439 376.262 388.938 376.104C392.713 375.717 393.22 375.895 395.305 374.92C398.716 373.533 401.807 371.547 404.41 369.071C404.901 368.55 405.53 368.16 406.235 367.939Z" fill="#263238"/>
<path d="M340.684 143.056L331.354 139.418L327.511 149.041C331.335 149.583 335.226 149.583 339.05 149.041L340.684 143.056Z" fill="#E58A7B"/>
<path d="M324.412 139.167L324.164 145.561L327.511 149.02L331.354 139.397L324.412 139.167Z" fill="#E58A7B"/>
<path d="M408.692 351.284L400.619 354.184L404.194 362.799L412.268 359.9L408.692 351.284Z" fill="#CF6F64"/>
<path d="M440.369 353.284H431.884L433.495 362.708H441.98L440.369 353.284Z" fill="#CF6F64"/>
<path opacity="0.2" d="M381.579 158.801C381.748 160.698 381.94 162.637 382.188 164.629L415.927 154.44C421.196 152.987 425.775 149.907 428.909 145.708C429.044 142.909 429.213 139.963 429.472 136.892C429.585 135.404 429.72 133.873 429.866 132.322C430.013 130.77 430.216 129.051 430.43 127.395L381.579 158.801Z" fill="black"/>
<path d="M392.6 124.418L391.473 124.292C392.138 119.051 396.341 114.921 400.77 115.025V116.074C396.893 116 393.197 119.722 392.6 124.418Z" fill="white"/>
<path d="M398.606 134.093H398.415V133.045C402.291 133.181 405.931 129.418 406.528 124.732L407.655 124.858C407.058 129.984 402.99 134.093 398.606 134.093Z" fill="white"/>
<path d="M419.668 80.1918C418.079 85.9677 416.209 96.5446 420.299 100.392C420.299 100.392 417.437 106.251 405.909 106.251C395.372 106.251 401.018 100.392 401.018 100.392C408.027 98.8612 408.151 94.1021 407.227 89.5946L419.668 80.1918Z" fill="#E58A7B"/>
<path d="M414.597 84.0284L407.239 89.5946C407.467 90.6304 407.599 91.6826 407.633 92.7394C409.785 94.7311 414.101 89.689 414.541 87.1103C414.764 86.095 414.783 85.0501 414.597 84.0284Z" fill="#CF6F64"/>
<path d="M394.583 80.1184C395.095 80.9439 395.785 81.6623 396.609 82.2287C397.433 82.795 398.374 83.1972 399.373 83.4099C402.077 83.9655 403.43 81.6488 402.686 79.3217C402.021 77.2252 399.801 74.4054 397.051 74.8876C396.462 75.0004 395.911 75.2429 395.443 75.5947C394.976 75.9466 394.606 76.3975 394.364 76.9097C394.123 77.4219 394.016 77.9806 394.054 78.5388C394.093 79.0971 394.274 79.6387 394.583 80.1184Z" fill="#CF6F64"/>
<path d="M399.057 61.6376C394.843 63.4301 393.355 79.0072 398.652 81.3134C403.948 83.6196 407.036 58.2308 399.057 61.6376Z" fill="#263238"/>
<path d="M420.953 71.5017C419.939 79.3217 419.826 83.9236 415.318 87.9279C413.921 89.2567 412.157 90.2006 410.22 90.6554C408.283 91.1102 406.248 91.0582 404.341 90.5051C402.433 89.952 400.728 88.9193 399.411 87.5211C398.095 86.1229 397.22 84.4135 396.882 82.5818C395.519 75.5584 397.401 63.9542 405.83 60.8409C407.601 60.1142 409.549 59.8414 411.471 60.0508C413.394 60.2602 415.221 60.9441 416.764 62.0316C418.307 63.1191 419.508 64.5707 420.245 66.2359C420.982 67.901 421.226 69.7191 420.953 71.5017Z" fill="#E58A7B"/>
<path d="M407.103 65.6839C413.346 64.2058 417.933 63.1995 416.287 68.032C414.113 74.4892 411.498 80.7368 415.003 81.0199C417.144 81.1981 426.61 77.4663 425.404 73.6821C424.356 70.3905 428.785 69.489 429.573 67.8223C432.492 61.7843 424.142 62.581 425.629 58.9121C427.117 55.2432 418.868 49.331 414.36 52.2766C407.024 57.0357 394.437 56.9624 401.052 49.1319C405.796 43.5447 397.333 44.6872 397.333 44.6872C397.333 44.6872 402.449 47.5071 393.84 51.8678C384.734 56.5221 393.085 69.0278 407.103 65.6839Z" fill="#263238"/>
<path d="M424.266 80.1184C423.033 81.7773 421.182 82.9505 419.071 83.4099C416.287 83.9655 415.217 81.6488 416.265 79.3217C417.2 77.2252 419.769 74.4054 422.429 74.8876C425.088 75.3698 425.697 78.0638 424.266 80.1184Z" fill="#E58A7B"/>
<path d="M383.022 170.803C383.022 170.803 375.404 234.223 374.806 258.291C374.198 283.323 400.624 361.429 400.624 361.429L414.146 356.188C414.146 356.188 398.37 284.822 400.624 260.241C403.013 233.437 412.884 170.845 412.884 170.845L383.022 170.803Z" fill="#35BF84"/>
<path opacity="0.2" d="M401.953 188.215C395.879 199.934 399.97 223.111 403.26 236.843C404.511 227.147 405.999 216.623 407.407 206.884C407.272 191.915 406.021 180.353 401.953 188.215Z" fill="black"/>
<path d="M413.549 352.036C413.617 352.036 415.149 356.041 415.149 356.041L399.553 362.142L397.096 357.886L413.549 352.036Z" fill="#4CAF4F"/>
<path d="M399.125 170.803C399.125 170.803 404.951 231.12 408.805 253.71C413.042 278.459 429.652 360.884 429.652 360.884H445.192C445.192 360.884 435.884 280.461 434.126 255.953C432.21 229.369 428.401 170.803 428.401 170.803H399.125Z" fill="#35BF84"/>
<path d="M445.429 357.121C445.496 357.121 445.947 361.156 445.947 361.156H428.863L427.646 356.523L445.429 357.121Z" fill="#4CAF4F"/>
<path opacity="0.2" d="M439.479 352.341C439.444 352.341 439.409 352.33 439.382 352.308C439.356 352.287 439.338 352.258 439.332 352.225C439.242 351.491 430.847 278.847 429.269 256.834C427.556 232.954 424.108 179.986 424.074 179.451C424.073 179.434 424.075 179.416 424.081 179.4C424.087 179.383 424.097 179.368 424.11 179.356C424.122 179.343 424.138 179.333 424.155 179.326C424.172 179.319 424.191 179.315 424.209 179.315C424.246 179.315 424.282 179.328 424.309 179.351C424.336 179.375 424.353 179.407 424.356 179.441C424.356 179.975 427.838 232.902 429.551 256.823C431.129 278.837 439.524 351.429 439.603 352.215C439.606 352.232 439.605 352.25 439.601 352.267C439.596 352.284 439.588 352.3 439.576 352.314C439.564 352.328 439.549 352.339 439.533 352.347C439.516 352.355 439.498 352.36 439.479 352.362V352.341Z" fill="black"/>
<path d="M408.061 73.6821C408.061 74.3215 407.633 74.8352 407.182 74.8352C406.731 74.8352 406.404 74.3215 406.449 73.6821C406.495 73.0426 406.878 72.529 407.328 72.529C407.779 72.529 408.106 73.0531 408.061 73.6821Z" fill="#263238"/>
<path d="M400.331 73.6821C400.331 74.3215 399.891 74.8352 399.452 74.8352C399.012 74.8352 398.674 74.3215 398.708 73.6821C398.742 73.0426 399.147 72.529 399.598 72.529C400.049 72.529 400.376 73.0531 400.331 73.6821Z" fill="#263238"/>
<path d="M402.765 74.007C401.824 75.9596 400.611 77.7888 399.158 79.4475C400.285 80.4957 402.393 80.0136 402.393 80.0136L402.765 74.007Z" fill="#DF5753"/>
<path d="M402.968 82.6866C402.941 82.6867 402.916 82.6817 402.892 82.6721C402.868 82.6625 402.846 82.6484 402.828 82.6308C402.81 82.6131 402.796 82.5922 402.787 82.5693C402.778 82.5465 402.774 82.5222 402.776 82.4979C402.779 82.4469 402.803 82.3989 402.843 82.3638C402.882 82.3287 402.935 82.3092 402.99 82.3092C403.852 82.3148 404.704 82.1406 405.484 81.7996C406.264 81.4586 406.952 80.9593 407.498 80.3385C407.537 80.3068 407.587 80.2893 407.639 80.2893C407.69 80.2893 407.74 80.3068 407.779 80.3385C407.816 80.3737 407.836 80.4207 407.836 80.4695C407.836 80.5184 407.816 80.5654 407.779 80.6006C407.196 81.2604 406.46 81.7902 405.628 82.1512C404.795 82.5121 403.886 82.6951 402.968 82.6866Z" fill="#263238"/>
<path d="M409.436 71.7533C409.382 71.779 409.322 71.7925 409.261 71.7925C409.2 71.7925 409.14 71.779 409.086 71.7533C408.665 71.4998 408.185 71.3421 407.686 71.2929C407.187 71.2437 406.682 71.3045 406.213 71.4702C406.167 71.4915 406.117 71.5041 406.066 71.5071C406.015 71.5102 405.964 71.5037 405.916 71.4881C405.867 71.4724 405.823 71.448 405.785 71.4161C405.747 71.3842 405.716 71.3456 405.694 71.3025C405.653 71.2092 405.652 71.1044 405.692 71.0105C405.732 70.9165 405.809 70.8407 405.909 70.7994C406.498 70.5755 407.136 70.4872 407.77 70.542C408.404 70.5967 409.014 70.7929 409.548 71.1138C409.592 71.1411 409.629 71.1762 409.657 71.2169C409.686 71.2576 409.705 71.3031 409.715 71.3509C409.724 71.3987 409.723 71.4478 409.712 71.4952C409.701 71.5427 409.68 71.5877 409.65 71.6275C409.593 71.6876 409.519 71.7312 409.436 71.7533Z" fill="#263238"/>
<path d="M397.344 69.6568C397.284 69.6432 397.229 69.6142 397.186 69.5729C397.149 69.5387 397.119 69.498 397.099 69.453C397.079 69.408 397.068 69.3597 397.068 69.3108C397.068 69.262 397.079 69.2137 397.099 69.1687C397.119 69.1237 397.149 69.0829 397.186 69.0488C397.618 68.5982 398.156 68.2464 398.758 68.0209C399.36 67.7955 400.01 67.7024 400.657 67.7489C400.709 67.7564 400.759 67.7736 400.803 67.7997C400.848 67.8257 400.886 67.8599 400.915 67.9002C400.945 67.9405 400.965 67.986 400.975 68.0339C400.985 68.0818 400.984 68.1311 400.973 68.1787C400.949 68.2758 400.887 68.3613 400.8 68.4192C400.713 68.4771 400.606 68.5034 400.5 68.4932C399.988 68.4632 399.475 68.542 399 68.7236C398.526 68.9052 398.102 69.1849 397.761 69.5415C397.71 69.5945 397.644 69.6334 397.57 69.6537C397.497 69.674 397.418 69.6751 397.344 69.6568Z" fill="#263238"/>
<path d="M439.738 112.499L428.018 109.595C428.018 109.595 416.524 135.917 412.456 137.626C406.934 139.974 392.95 148.108 387 151.956C386.673 153.266 386.932 156.736 387.676 157.689C397.818 155.97 417.234 149.02 421.291 145.488C430.543 137.427 439.738 112.499 439.738 112.499Z" fill="#E58A7B"/>
<path d="M431.557 372.027C430.985 372.069 430.415 371.924 429.945 371.618C429.8 371.496 429.691 371.341 429.63 371.168C429.569 370.996 429.557 370.811 429.596 370.633C429.603 370.521 429.642 370.414 429.71 370.321C429.777 370.229 429.87 370.156 429.979 370.109C430.925 369.658 433.574 371.22 433.878 371.398C433.911 371.417 433.937 371.446 433.951 371.48C433.966 371.514 433.968 371.551 433.957 371.587C433.947 371.623 433.928 371.657 433.9 371.684C433.872 371.712 433.838 371.732 433.799 371.744C433.064 371.912 432.313 372.007 431.557 372.027ZM430.43 370.392C430.344 370.374 430.256 370.374 430.17 370.392C430.127 370.412 430.091 370.444 430.067 370.483C430.043 370.522 430.032 370.567 430.035 370.612C430.005 370.734 430.01 370.861 430.05 370.98C430.089 371.1 430.162 371.208 430.261 371.293C430.7 371.66 431.804 371.702 433.258 371.44C432.393 370.909 431.418 370.553 430.396 370.392H430.43Z" fill="#4CAF4F"/>
<path d="M433.743 371.744C433.714 371.753 433.682 371.753 433.653 371.744C432.808 371.304 431.219 369.574 431.455 368.693C431.491 368.554 431.576 368.429 431.696 368.34C431.817 368.251 431.966 368.202 432.12 368.201C432.271 368.182 432.425 368.194 432.571 368.235C432.717 368.277 432.852 368.347 432.965 368.442C433.901 369.186 433.957 371.471 433.957 371.587C433.963 371.621 433.956 371.656 433.937 371.687C433.919 371.717 433.89 371.741 433.856 371.754C433.818 371.761 433.779 371.758 433.743 371.744ZM432.233 368.547H432.154C431.895 368.547 431.861 368.683 431.85 368.735C431.715 369.249 432.718 370.559 433.551 371.178C433.548 370.292 433.253 369.429 432.706 368.704C432.575 368.598 432.406 368.542 432.233 368.547Z" fill="#4CAF4F"/>
<path d="M401.638 370.717C400.948 370.94 400.198 370.94 399.508 370.717C399.351 370.638 399.219 370.523 399.122 370.384C399.026 370.245 398.968 370.085 398.956 369.92C398.942 369.816 398.956 369.711 398.997 369.614C399.039 369.517 399.106 369.431 399.192 369.364C400.094 368.61 403.779 369.364 404.196 369.511C404.235 369.521 404.27 369.542 404.295 369.573C404.32 369.603 404.332 369.641 404.331 369.679C404.333 369.718 404.322 369.757 404.3 369.791C404.278 369.824 404.245 369.851 404.207 369.867C403.377 370.216 402.518 370.5 401.638 370.717ZM399.801 369.469C399.672 369.493 399.552 369.547 399.452 369.626C399.416 369.651 399.388 369.685 399.372 369.724C399.356 369.763 399.353 369.806 399.361 369.846C399.369 369.956 399.406 370.063 399.469 370.156C399.532 370.25 399.619 370.327 399.722 370.381C400.319 370.675 401.705 370.444 403.497 369.742C402.29 369.458 401.041 369.366 399.801 369.469Z" fill="#4CAF4F"/>
<path d="M404.173 369.867H404.083C402.956 369.679 400.702 368.473 400.635 367.572C400.635 367.362 400.736 367.069 401.277 366.901C401.46 366.84 401.654 366.815 401.847 366.825C402.041 366.836 402.23 366.883 402.404 366.964C403.621 367.519 404.263 369.532 404.297 369.626C404.305 369.658 404.304 369.691 404.294 369.722C404.284 369.754 404.266 369.782 404.241 369.805C404.224 369.83 404.201 369.852 404.173 369.867ZM401.502 367.215H401.39C401.04 367.331 401.04 367.467 401.04 367.509C401.04 368.054 402.674 369.05 403.813 369.385C403.55 368.543 402.996 367.806 402.235 367.289C402.009 367.182 401.748 367.156 401.502 367.215Z" fill="#4CAF4F"/>
<path d="M387.957 151.337L376.204 156.369L374.84 159.513L379.179 162.228C379.179 162.228 387.292 161.411 389.603 156.557L387.957 151.337Z" fill="#E58A7B"/>
<path d="M388.453 157.868C388.19 155.767 387.445 153.743 386.267 151.935L388.126 150.635C389.525 152.719 390.417 155.062 390.741 157.501L388.453 157.868Z" fill="#263238"/>
<path d="M390.459 152.826C390.707 153.189 390.829 153.615 390.809 154.045C390.788 154.476 390.625 154.89 390.342 155.231C390.059 155.572 389.67 155.824 389.228 155.952C388.786 156.08 388.312 156.079 387.871 155.947C387.43 155.816 387.043 155.562 386.762 155.219C386.482 154.876 386.323 154.461 386.305 154.03C386.287 153.6 386.413 153.175 386.664 152.813C386.915 152.451 387.28 152.17 387.709 152.008C388.191 151.78 388.75 151.737 389.265 151.891C389.78 152.044 390.209 152.38 390.459 152.826Z" fill="#263238"/>
<path d="M368.259 160.436L369.826 161.903L380.373 157.71L376.204 156.369L368.259 160.436Z" fill="#E58A7B"/>
<path opacity="0.2" d="M413.549 352.036C413.617 352.036 415.149 356.041 415.149 356.041L399.553 362.142L397.096 357.886L413.549 352.036Z" fill="black"/>
<path opacity="0.2" d="M445.429 357.121C445.496 357.121 445.947 361.156 445.947 361.156H428.863L427.646 356.523L445.429 357.121Z" fill="black"/>
<path d="M442.792 109.48C445.891 118.778 433.777 131.494 433.777 131.494L417.042 125.141C419.026 119.767 421.313 114.494 423.894 109.344C429.033 99.0394 439.659 100.098 442.792 109.48Z" fill="#4CAF4F"/>
<path opacity="0.2" d="M442.792 109.48C445.891 118.778 433.777 131.494 433.777 131.494L417.042 125.141C419.026 119.767 421.313 114.494 423.894 109.344C429.033 99.0394 439.659 100.098 442.792 109.48Z" fill="black"/>
<path d="M276.508 16.3214H269.307V17.4011H276.508V16.3214Z" fill="#35BF84"/>
<path d="M369.722 59.0552L368.851 77.046L370.01 77.0946L370.882 59.1038L369.722 59.0552Z" fill="#35BF84"/>
<path d="M367.482 21.1643H234.509L222.135 278.742H355.109L367.482 21.1643Z" fill="#35BF84"/>
<path opacity="0.56" d="M363.515 24.7074H230.542L218.169 282.285H351.142L363.515 24.7074Z" fill="#FAFAFA"/>
<path opacity="0.07" d="M359.549 28.2401H226.575L214.191 285.818H347.164L359.549 28.2401Z" fill="#4CAF4F"/>
<path d="M344.414 140.582H230.914L229.967 160.289H343.468L344.414 140.582Z" fill="white"/>
<path d="M293.332 126.2H231.601L231.184 135.016H292.915L293.332 126.2Z" fill="#35BF84"/>
<path d="M341.856 193.771H228.356L227.409 213.478H340.91L341.856 193.771Z" fill="white"/>
<path opacity="0.47" d="M321.043 240.093H244.718L243.58 263.71H319.905L321.043 240.093Z" fill="#4CAF4F"/>
<path d="M315.938 267.379H239.614C239.58 267.387 239.546 267.387 239.512 267.379C239.501 267.349 239.501 267.315 239.512 267.285L240.639 243.657C240.639 243.641 240.643 243.625 240.65 243.61C240.656 243.596 240.667 243.583 240.679 243.572C240.692 243.561 240.707 243.553 240.723 243.547C240.74 243.542 240.757 243.54 240.774 243.542H317.099C317.113 243.535 317.128 243.532 317.144 243.532C317.159 243.532 317.175 243.535 317.189 243.542C317.197 243.555 317.201 243.569 317.201 243.584C317.201 243.598 317.197 243.613 317.189 243.626L316.084 267.306C316.071 267.33 316.05 267.351 316.023 267.364C315.997 267.377 315.968 267.382 315.938 267.379ZM239.749 267.128H315.803L316.93 243.751H240.876L239.749 267.128Z" fill="white"/>
<path d="M280.001 179.388H229.043L228.626 188.215H279.573L280.001 179.388Z" fill="#35BF84"/>
<path d="M319.589 76.9212C319.298 82.6566 317.105 88.1675 313.312 92.6975C310.505 96.1191 306.891 98.8969 302.75 100.818C298.609 102.738 294.05 103.751 289.422 103.778C285.683 103.804 281.977 103.118 278.534 101.762C275.09 100.406 271.981 98.4084 269.399 95.8923C266.817 93.3763 264.815 90.3952 263.519 87.1325C262.222 83.8698 261.657 80.3947 261.858 76.9212C262.255 69.7134 265.596 62.9187 271.199 57.9266C276.803 52.9345 284.244 50.1222 292.003 50.0648C295.745 50.0324 299.455 50.7141 302.902 52.0678C306.35 53.4216 309.463 55.4187 312.048 57.9356C314.634 60.4526 316.637 63.436 317.934 66.7015C319.231 69.967 319.794 73.4452 319.589 76.9212Z" fill="white"/>
<path d="M322.305 55.6835C322.231 57.2085 321.648 58.6742 320.637 59.8765C319.889 60.7853 318.927 61.5231 317.826 62.0336C316.724 62.5441 315.512 62.8138 314.281 62.8221C313.089 62.8289 311.913 62.5639 310.856 62.0504C309.8 61.537 308.894 60.7906 308.219 59.8765C307.325 58.6413 306.882 57.171 306.957 55.6835C307.066 53.7698 307.955 51.9668 309.444 50.6423C310.933 49.3177 312.909 48.5713 314.969 48.5553C315.963 48.5469 316.948 48.7278 317.864 49.087C318.779 49.4462 319.606 49.9761 320.294 50.6439C320.981 51.3117 321.514 52.1034 321.86 52.9701C322.206 53.8368 322.357 54.7602 322.305 55.6835Z" fill="#35BF84"/>
<path d="M243.141 150.436C243.087 151.28 242.69 152.074 242.031 152.658C241.373 153.242 240.501 153.571 239.591 153.58C239.152 153.585 238.716 153.506 238.311 153.348C237.906 153.19 237.54 152.957 237.236 152.662C236.932 152.367 236.696 152.018 236.543 151.635C236.389 151.252 236.322 150.844 236.346 150.436C236.394 149.589 236.789 148.792 237.449 148.207C238.109 147.623 238.984 147.295 239.895 147.291C240.334 147.287 240.769 147.367 241.173 147.526C241.577 147.684 241.943 147.918 242.247 148.212C242.55 148.507 242.786 148.856 242.94 149.238C243.094 149.62 243.162 150.028 243.141 150.436Z" fill="#263238"/>
<path d="M258.331 150.436C258.28 151.281 257.884 152.077 257.225 152.661C256.566 153.245 255.692 153.574 254.782 153.58C254.343 153.584 253.909 153.504 253.505 153.345C253.101 153.186 252.737 152.953 252.434 152.658C252.131 152.363 251.896 152.014 251.744 151.632C251.591 151.25 251.524 150.843 251.547 150.436C251.596 149.591 251.989 148.795 252.647 148.211C253.304 147.627 254.177 147.298 255.086 147.291C255.525 147.286 255.961 147.365 256.366 147.523C256.771 147.681 257.137 147.914 257.441 148.209C257.745 148.504 257.981 148.854 258.134 149.236C258.287 149.619 258.354 150.027 258.331 150.436Z" fill="#263238"/>
<path d="M273.533 150.436C273.481 151.281 273.086 152.077 272.427 152.661C271.767 153.245 270.894 153.574 269.983 153.58C269.544 153.584 269.11 153.504 268.705 153.345C268.301 153.187 267.936 152.953 267.632 152.659C267.328 152.364 267.092 152.015 266.938 151.633C266.784 151.251 266.716 150.843 266.738 150.436C266.789 149.59 267.185 148.794 267.844 148.21C268.503 147.626 269.377 147.297 270.287 147.291C270.727 147.286 271.162 147.365 271.567 147.523C271.972 147.681 272.338 147.914 272.643 148.209C272.947 148.504 273.183 148.854 273.336 149.236C273.489 149.619 273.556 150.027 273.533 150.436Z" fill="#263238"/>
<path d="M240.583 203.624C240.529 204.469 240.132 205.263 239.473 205.847C238.815 206.43 237.943 206.76 237.033 206.769C236.594 206.772 236.159 206.692 235.755 206.534C235.351 206.375 234.985 206.142 234.682 205.847C234.378 205.553 234.142 205.204 233.988 204.822C233.834 204.439 233.766 204.032 233.788 203.624C233.839 202.779 234.235 201.983 234.894 201.399C235.553 200.815 236.427 200.486 237.337 200.479C237.776 200.476 238.211 200.556 238.615 200.715C239.02 200.873 239.385 201.107 239.689 201.401C239.992 201.695 240.229 202.045 240.382 202.427C240.536 202.809 240.604 203.217 240.583 203.624Z" fill="#263238"/>
<path d="M255.773 203.624C255.722 204.468 255.328 205.262 254.671 205.846C254.014 206.43 253.143 206.76 252.235 206.769C251.796 206.774 251.36 206.695 250.955 206.537C250.55 206.379 250.184 206.145 249.88 205.851C249.575 205.556 249.34 205.206 249.186 204.823C249.033 204.44 248.966 204.032 248.989 203.624C249.041 202.779 249.436 201.983 250.096 201.399C250.755 200.815 251.629 200.486 252.539 200.479C252.977 200.476 253.412 200.556 253.815 200.715C254.219 200.873 254.584 201.107 254.887 201.402C255.19 201.696 255.425 202.045 255.577 202.428C255.73 202.81 255.796 203.217 255.773 203.624Z" fill="#263238"/>
<path d="M271.009 203.624C270.957 204.47 270.562 205.265 269.902 205.849C269.243 206.434 268.369 206.762 267.459 206.769C267.021 206.771 266.587 206.69 266.183 206.531C265.779 206.372 265.415 206.138 265.111 205.844C264.808 205.55 264.572 205.201 264.417 204.82C264.263 204.438 264.194 204.031 264.214 203.624C264.268 202.779 264.664 201.985 265.323 201.402C265.982 200.818 266.854 200.489 267.763 200.479C268.202 200.475 268.638 200.554 269.043 200.711C269.448 200.869 269.814 201.103 270.118 201.398C270.423 201.693 270.658 202.042 270.812 202.425C270.965 202.808 271.032 203.216 271.009 203.624Z" fill="#263238"/>
<path d="M286.177 203.624C286.123 204.469 285.726 205.263 285.067 205.847C284.409 206.43 283.537 206.76 282.627 206.769C282.189 206.771 281.755 206.69 281.351 206.531C280.947 206.372 280.583 206.138 280.279 205.844C279.976 205.55 279.74 205.201 279.585 204.82C279.431 204.438 279.362 204.031 279.381 203.624C279.436 202.779 279.832 201.985 280.491 201.402C281.149 200.818 282.022 200.488 282.931 200.479C283.37 200.476 283.805 200.556 284.209 200.715C284.613 200.873 284.979 201.107 285.283 201.401C285.586 201.695 285.822 202.045 285.976 202.427C286.13 202.809 286.198 203.217 286.177 203.624Z" fill="#263238"/>
<path d="M301.435 203.624C301.381 204.469 300.984 205.263 300.326 205.847C299.667 206.43 298.795 206.76 297.885 206.769C297.446 206.774 297.01 206.695 296.605 206.537C296.2 206.379 295.834 206.145 295.53 205.851C295.226 205.556 294.99 205.206 294.837 204.823C294.684 204.44 294.617 204.032 294.64 203.624C294.691 202.779 295.087 201.983 295.746 201.399C296.405 200.815 297.279 200.486 298.189 200.479C298.628 200.476 299.063 200.556 299.467 200.715C299.872 200.873 300.237 201.107 300.541 201.401C300.845 201.695 301.081 202.045 301.234 202.427C301.388 202.809 301.456 203.217 301.435 203.624Z" fill="#263238"/>
<path d="M299.128 75.5225C303.845 71.2319 304.095 64.3546 299.687 60.1616C295.28 55.9686 287.883 56.0477 283.166 60.3383C278.449 64.6289 278.199 71.5062 282.607 75.6992C287.015 79.8922 294.412 79.813 299.128 75.5225Z" fill="#4CAF4F"/>
<path d="M313.312 92.6975C310.505 96.1191 306.891 98.8969 302.75 100.818C298.609 102.738 294.05 103.751 289.422 103.778C284.935 103.813 280.507 102.821 276.53 100.888C272.552 98.9562 269.147 96.1432 266.614 92.6975C272.091 87.6239 280.756 84.3114 290.358 84.3114C299.959 84.3114 308.32 87.6239 313.312 92.6975Z" fill="#4CAF4F"/>
<path opacity="0.1" d="M299.128 75.5225C303.845 71.2319 304.095 64.3546 299.687 60.1616C295.28 55.9686 287.883 56.0477 283.166 60.3383C278.449 64.6289 278.199 71.5062 282.607 75.6992C287.015 79.8922 294.412 79.813 299.128 75.5225Z" fill="white"/>
<path opacity="0.1" d="M313.312 92.6975C310.505 96.1191 306.891 98.8969 302.75 100.818C298.609 102.738 294.05 103.751 289.422 103.778C284.935 103.813 280.507 102.821 276.53 100.888C272.552 98.9562 269.147 96.1432 266.614 92.6975C272.091 87.6239 280.756 84.3114 290.358 84.3114C299.959 84.3114 308.32 87.6239 313.312 92.6975Z" fill="white"/>
<path d="M147.513 165.038C146.442 167.218 145.315 169.619 144.335 171.946C143.355 174.273 142.352 176.673 141.484 179.063C139.712 183.774 138.363 188.612 137.45 193.529L137.202 195.07C137.178 195.335 137.205 195.601 137.281 195.857C137.547 196.725 137.965 197.547 138.52 198.289C139.967 200.208 141.646 201.966 143.524 203.53C145.503 205.243 147.579 206.856 149.744 208.362C151.908 209.914 154.184 211.423 156.426 212.849L154.319 216.528C148.964 214.358 143.882 211.648 139.163 208.446C136.645 206.738 134.372 204.737 132.401 202.492C131.233 201.156 130.321 199.641 129.708 198.016C129.351 197.001 129.169 195.939 129.167 194.871C129.167 194.62 129.167 194.253 129.167 194.075V193.561L129.28 192.513C129.926 187.051 131.16 181.664 132.965 176.432C133.844 173.854 134.779 171.285 135.849 168.78C136.92 166.275 138.024 163.822 139.388 161.275L147.513 165.038Z" fill="#E58A7B"/>
<path d="M154.837 212.199L162.805 208.446L160.742 216.581C160.742 216.581 155.277 218.006 152.741 215.532L154.837 212.199Z" fill="#E58A7B"/>
<path d="M170.096 209.777L167.977 216.507L160.742 216.581L162.805 208.446L170.096 209.777Z" fill="#E58A7B"/>
<path d="M181.342 125.791C181.768 127.244 182.361 128.649 183.111 129.984C182.892 130.215 182.61 130.387 182.294 130.481C181.979 130.575 181.642 130.588 181.319 130.519L181.342 125.791Z" fill="#DF5753"/>
<path d="M181.105 125.854C181.572 125.854 181.95 125.314 181.95 124.648C181.95 123.983 181.572 123.443 181.105 123.443C180.638 123.443 180.26 123.983 180.26 124.648C180.26 125.314 180.638 125.854 181.105 125.854Z" fill="#263238"/>
<path d="M180.857 123.485L182.57 123.034C182.57 123.034 181.736 124.271 180.857 123.485Z" fill="#263238"/>
<path d="M159.334 133.485C160.359 138.36 161.385 147.301 157.711 150.561C157.711 150.561 159.153 155.509 168.901 155.509C179.618 155.509 174.017 150.561 174.017 150.561C168.168 149.261 168.315 145.226 169.34 141.431L159.334 133.485Z" fill="#E58A7B"/>
<path d="M156.483 122.374C157.024 130.519 157.069 133.978 161.486 138.16C168.146 144.45 178.784 142.06 180.869 133.967C182.751 126.63 181.556 114.554 172.98 111.315C171.098 110.593 169.049 110.33 167.027 110.551C165.005 110.772 163.077 111.469 161.425 112.576C159.774 113.683 158.453 115.164 157.588 116.879C156.723 118.593 156.343 120.484 156.483 122.374Z" fill="#E58A7B"/>
<path d="M157.35 113.212C152.956 114.7 147.096 113.589 149.395 126.2C151.829 139.555 148.087 143.947 148.087 143.947C148.087 143.947 164.754 147.249 181.77 143.748C181.77 143.748 176.575 135.299 178.029 129.072C179.888 121.21 178.423 118.306 178.423 118.306C178.423 118.306 163.526 111.115 157.35 113.212Z" fill="#263238"/>
<path d="M175.944 126.619C175.949 128.168 176.425 129.684 177.319 130.99C178.513 132.689 179.922 132.039 180.271 130.236C180.587 128.653 180.35 125.854 178.829 124.764C177.308 123.673 175.967 124.743 175.944 126.619Z" fill="#E58A7B"/>
<path d="M153.53 114.585C152.268 111.283 158.286 106.199 171.02 108.296C183.753 110.392 184.306 120.256 184.306 120.256L181.736 117.405L181.849 120.403L168.766 122.741L153.53 114.585Z" fill="#263238"/>
<path d="M154.612 151.117C154.537 150.638 154.666 150.151 154.971 149.76C155.276 149.368 155.734 149.103 156.246 149.02C160.213 148.412 169.228 147.175 173.758 147.762C177.139 148.203 178.018 150.027 178.164 151.526C178.187 151.788 178.149 152.052 178.053 152.3C177.957 152.548 177.806 152.774 177.608 152.962C177.411 153.151 177.172 153.298 176.908 153.394C176.645 153.49 176.362 153.532 176.079 153.517L156.494 152.7C156.032 152.678 155.593 152.509 155.25 152.22C154.907 151.932 154.682 151.542 154.612 151.117Z" fill="#4CAF4F"/>
<path opacity="0.6" d="M154.612 151.117C154.537 150.638 154.666 150.151 154.971 149.76C155.276 149.368 155.734 149.103 156.246 149.02C160.213 148.412 169.228 147.175 173.758 147.762C177.139 148.203 178.018 150.027 178.164 151.526C178.187 151.788 178.149 152.052 178.053 152.3C177.957 152.548 177.806 152.774 177.608 152.962C177.411 153.151 177.172 153.298 176.908 153.394C176.645 153.49 176.362 153.532 176.079 153.517L156.494 152.7C156.032 152.678 155.593 152.509 155.25 152.22C154.907 151.932 154.682 151.542 154.612 151.117Z" fill="black"/>
<path d="M165.937 334.248L173.206 338.944L185.365 323.608L178.096 318.922L165.937 334.248Z" fill="#E58A7B"/>
<path d="M148.989 333.944L156.663 338.011L167.425 321.794L159.751 317.727L148.989 333.944Z" fill="#E58A7B"/>
<path d="M185.354 323.608L179.088 331.512L171.82 326.826L178.085 318.922L185.354 323.608Z" fill="#CF6F64"/>
<path d="M159.739 317.727L167.425 321.805L161.88 330.159L154.195 326.082L159.739 317.727Z" fill="#CF6F64"/>
<path d="M172.068 202.314C172.068 202.314 200.443 235.575 195.112 267.39C190.819 293.082 165.915 327.874 165.915 327.874L154.206 322.465C162.459 307.082 169.502 291.163 175.279 274.832C177.061 269.762 177.581 264.382 176.8 259.098C176.019 253.813 173.958 248.763 170.772 244.328C156.393 224.799 133.359 236.424 148.854 202.314H172.068Z" fill="#4CAF4F"/>
<path opacity="0.6" d="M172.068 202.314C172.068 202.314 200.443 235.575 195.112 267.39C190.819 293.082 165.915 327.874 165.915 327.874L154.206 322.465C162.459 307.082 169.502 291.163 175.279 274.832C177.061 269.762 177.581 264.382 176.8 259.098C176.019 253.813 173.958 248.763 170.772 244.328C156.393 224.799 133.359 236.424 148.854 202.314H172.068Z" fill="black"/>
<path opacity="0.4" d="M185.985 223.677L181.86 219.862C181.86 220.166 189.85 266.048 192.092 278.941C193.416 275.175 194.429 271.32 195.124 267.411C197.761 251.802 192.25 235.858 185.985 223.677Z" fill="black"/>
<path d="M184.734 202.314C184.734 202.314 218.901 244.118 219.87 269.182C220.67 290.147 182.683 330.767 182.683 330.767L171.639 324.121C171.639 324.121 193.873 295.273 199.473 271.709C197.31 248.353 151.558 202.314 151.558 202.314H184.734Z" fill="#4CAF4F"/>
<path opacity="0.6" d="M184.734 202.314C184.734 202.314 218.901 244.118 219.87 269.182C220.67 290.147 182.683 330.767 182.683 330.767L171.639 324.121C171.639 324.121 193.873 295.273 199.473 271.709C197.31 248.353 151.558 202.314 151.558 202.314H184.734Z" fill="black"/>
<path d="M142.464 152.427C138.813 153.234 135.308 165.583 135.308 165.583L149.586 174.451C149.586 174.451 154.342 164.681 152.674 160.404C150.95 155.949 147.051 151.41 142.464 152.427Z" fill="#35BF84"/>
<path opacity="0.2" d="M145.259 160.383L144.267 171.149L149.575 174.462C151.04 171.392 152.125 168.178 152.809 164.881L145.259 160.383Z" fill="black"/>
<path d="M188.96 152.668C188.96 152.668 193.174 154.042 184.734 202.303H148.831C149.44 188.676 149.451 180.29 142.464 152.427C147.491 151.463 152.587 150.84 157.711 150.561C163.139 150.199 168.589 150.199 174.017 150.561C181.026 151.159 188.96 152.668 188.96 152.668Z" fill="#35BF84"/>
<path d="M192.611 160.383C193.422 162.48 194.279 164.734 195.18 166.904C196.082 169.074 196.938 171.306 197.851 173.508L200.612 180.091L201.31 181.737L201.671 182.554L201.84 182.963C201.84 183.036 201.84 183.036 201.84 183.026C201.634 182.756 201.364 182.533 201.051 182.376C200.606 182.132 200.103 181.992 199.586 181.967C199.157 181.955 198.73 182.03 198.336 182.187C197.817 182.407 197.817 182.502 197.828 182.491C197.922 182.421 198.005 182.34 198.076 182.25C198.7 181.488 199.24 180.67 199.688 179.808C200.217 178.843 200.725 177.816 201.232 176.778C202.223 174.682 203.136 172.512 204.049 170.321C204.962 168.13 205.829 165.918 206.675 163.685L209.244 156.998L213.582 158.046C212.726 162.826 211.622 167.48 210.292 172.218C209.649 174.577 208.894 176.915 208.038 179.273C207.61 180.458 207.137 181.632 206.596 182.837C206.032 184.146 205.338 185.402 204.522 186.59C204.222 186.99 203.891 187.368 203.53 187.722C202.955 188.3 202.257 188.761 201.48 189.074C200.79 189.35 200.043 189.479 199.293 189.452C198.453 189.423 197.635 189.195 196.916 188.791C196.067 188.298 195.362 187.618 194.865 186.81C194.696 186.538 194.549 186.265 194.448 186.066L194.234 185.667L193.805 184.85L192.949 183.225C191.822 181.045 190.695 178.843 189.715 176.631C188.734 174.42 187.698 172.176 186.729 169.923C185.759 167.669 184.892 165.415 184.069 162.983L192.611 160.383Z" fill="#E58A7B"/>
<path d="M188.96 152.668C193.276 153.622 198.133 165.489 198.133 165.489L185.297 175.646C185.297 175.646 176.992 162.711 178.671 158.444C180.418 154 183.325 151.421 188.96 152.668Z" fill="#35BF84"/>
<path d="M211.283 153.245L215.791 149.744L218.924 154.283L216.614 158.067C216.614 158.067 212.94 161.212 209.694 159.608C209.179 158.531 209.056 157.327 209.343 156.179C209.629 155.03 210.311 154 211.283 153.245Z" fill="#E58A7B"/>
<path d="M223.927 149.754L223.589 150.897L216.456 152.008L215.757 149.744L223.927 149.754Z" fill="#E58A7B"/>
<path d="M183.562 331.302L170.693 323.566L173.003 319.834L187.461 328.105L183.562 331.302Z" fill="#35BF84"/>
<path d="M161.7 337.466C160.571 337.337 159.486 336.98 158.522 336.418C158.483 336.405 158.448 336.381 158.424 336.349C158.399 336.317 158.386 336.278 158.386 336.239C158.386 336.2 158.399 336.162 158.424 336.13C158.448 336.098 158.483 336.074 158.522 336.061C158.872 335.956 161.903 335.086 162.782 335.757C162.881 335.833 162.956 335.933 163 336.045C163.043 336.158 163.054 336.279 163.03 336.397C163.014 336.585 162.947 336.767 162.835 336.925C162.722 337.083 162.568 337.211 162.388 337.298C162.177 337.405 161.941 337.463 161.7 337.466ZM159.165 336.313C160.573 336.984 161.7 337.225 162.241 336.973C162.359 336.912 162.458 336.825 162.529 336.718C162.6 336.612 162.641 336.49 162.647 336.365C162.647 336.197 162.647 336.124 162.545 336.082C162.072 335.726 160.382 335.998 159.142 336.313H159.165Z" fill="#263238"/>
<path d="M158.601 336.491C158.542 336.49 158.485 336.467 158.444 336.428C158.427 336.399 158.418 336.367 158.418 336.334C158.418 336.301 158.427 336.268 158.444 336.239C158.444 336.145 159.176 333.87 160.325 333.357C160.472 333.294 160.632 333.262 160.793 333.262C160.954 333.262 161.114 333.294 161.261 333.357C161.419 333.403 161.556 333.497 161.65 333.625C161.744 333.752 161.789 333.905 161.779 334.059C161.7 335.002 159.638 336.302 158.691 336.522L158.601 336.491ZM160.787 333.629C160.678 333.632 160.57 333.657 160.472 333.702C159.773 334.017 159.199 335.243 158.917 335.988C159.908 335.6 161.272 334.573 161.317 333.996C161.317 333.902 161.317 333.786 161.058 333.682C160.974 333.639 160.882 333.611 160.787 333.598V333.629Z" fill="#263238"/>
<path d="M177.781 341.994C176.508 341.994 174.738 340.474 173.769 339.541C173.745 339.509 173.731 339.471 173.731 339.431C173.731 339.392 173.745 339.353 173.769 339.321C173.792 339.287 173.823 339.26 173.861 339.241C173.899 339.223 173.941 339.214 173.983 339.216C174.434 339.216 178.344 339.761 178.897 340.789C178.955 340.881 178.986 340.986 178.986 341.093C178.986 341.2 178.955 341.305 178.897 341.397C178.814 341.557 178.689 341.695 178.533 341.797C178.377 341.9 178.196 341.964 178.006 341.984L177.781 341.994ZM174.513 339.688C175.933 340.967 177.184 341.68 177.894 341.596C178.018 341.581 178.136 341.538 178.239 341.47C178.341 341.402 178.424 341.312 178.48 341.208C178.505 341.172 178.518 341.13 178.518 341.088C178.518 341.045 178.505 341.003 178.48 340.967C178.187 340.401 176.102 339.919 174.513 339.688Z" fill="#263238"/>
<path d="M174.637 339.636C174.384 339.642 174.131 339.625 173.882 339.583C173.847 339.578 173.814 339.565 173.787 339.545C173.759 339.525 173.737 339.498 173.724 339.468C173.707 339.437 173.698 339.403 173.698 339.368C173.698 339.334 173.707 339.3 173.724 339.269C173.792 339.195 175.313 337.487 176.755 337.371C177.164 337.342 177.568 337.462 177.882 337.707C178.322 338.063 178.299 338.378 178.187 338.577C177.905 339.29 175.955 339.636 174.637 339.636ZM174.344 339.248C175.606 339.311 177.623 338.923 177.882 338.409C177.882 338.409 177.972 338.241 177.679 338.011C177.563 337.917 177.427 337.846 177.279 337.802C177.132 337.759 176.977 337.744 176.823 337.759C175.851 338.012 174.986 338.535 174.344 339.258V339.248Z" fill="#263238"/>
<path d="M158.906 335.359L149.349 332.843C149.185 332.796 149.007 332.808 148.851 332.876C148.695 332.944 148.572 333.063 148.504 333.21L145.281 339.95C145.206 340.123 145.17 340.308 145.177 340.495C145.184 340.681 145.233 340.864 145.322 341.031C145.41 341.198 145.535 341.347 145.69 341.466C145.844 341.585 146.024 341.672 146.217 341.722C149.597 342.539 151.22 342.77 155.423 343.892C158.015 344.562 161.711 345.81 165.284 346.753C168.856 347.697 170.05 344.458 168.664 343.766C162.399 340.684 161.903 338.524 160.19 336.218C159.883 335.801 159.429 335.496 158.906 335.359Z" fill="#35BF84"/>
<path d="M174.028 338.315L165.87 333.074C165.731 332.98 165.561 332.937 165.391 332.952C165.22 332.968 165.062 333.041 164.946 333.157L159.537 338.566C159.405 338.706 159.306 338.871 159.248 339.048C159.19 339.226 159.173 339.414 159.199 339.598C159.224 339.783 159.292 339.96 159.397 340.118C159.501 340.276 159.641 340.412 159.807 340.516C162.681 342.309 164.168 343.032 167.763 345.349C170.017 346.774 174.378 349.94 177.42 351.911C180.463 353.881 182.728 351.177 181.646 350.108C176.801 345.296 175.741 342.277 174.941 339.541C174.802 339.045 174.479 338.61 174.028 338.315Z" fill="#35BF84"/>
<path d="M167.413 328.566L152.708 321.763L154.229 318.052L169.938 325.222L167.413 328.566Z" fill="#35BF84"/>
<path d="M148.29 200.343L147.051 203.362C146.927 203.593 147.22 203.834 147.637 203.834H184.914C185.241 203.834 185.511 203.687 185.534 203.498L185.849 200.5C185.849 200.301 185.59 200.123 185.241 200.123H148.876C148.767 200.113 148.656 200.128 148.554 200.167C148.452 200.205 148.362 200.265 148.29 200.343Z" fill="#4CAF4F"/>
<path opacity="0.4" d="M148.29 200.343L147.051 203.362C146.927 203.593 147.22 203.834 147.637 203.834H184.914C185.241 203.834 185.511 203.687 185.534 203.498L185.849 200.5C185.849 200.301 185.59 200.123 185.241 200.123H148.876C148.767 200.113 148.656 200.128 148.554 200.167C148.452 200.205 148.362 200.265 148.29 200.343Z" fill="white"/>
<path d="M154.161 204.127H153.181C152.989 204.127 152.843 204.033 152.854 203.918L153.316 200.029C153.316 199.924 153.496 199.829 153.688 199.829H154.668C154.86 199.829 155.006 199.924 154.995 200.029L154.533 203.918C154.522 204.033 154.353 204.127 154.161 204.127Z" fill="#4CAF4F"/>
<path d="M177.15 204.127H176.181C175.989 204.127 175.843 204.033 175.854 203.918L176.305 200.029C176.305 199.924 176.496 199.829 176.688 199.829H177.657C177.848 199.829 178.006 199.924 177.984 200.029L177.533 203.918C177.477 204.033 177.353 204.127 177.15 204.127Z" fill="#4CAF4F"/>
<g style="mix-blend-mode:multiply">
<path d="M153.305 381.65C169.978 381.65 183.494 380.739 183.494 379.616C183.494 378.493 169.978 377.583 153.305 377.583C136.632 377.583 123.115 378.493 123.115 379.616C123.115 380.739 136.632 381.65 153.305 381.65Z" fill="#F5F5F5"/>
</g>
<path d="M171.696 376.744C166.354 375.297 160.427 373.442 156.843 371.503C156.742 371.44 156.629 371.408 156.528 371.356V348.86H167.335C168.155 348.815 168.926 348.48 169.489 347.924C170.053 347.368 170.367 346.632 170.367 345.868C170.367 345.103 170.053 344.368 169.489 343.811C168.926 343.255 168.155 342.92 167.335 342.875H156.584V240.334H150.093V342.875H139.354C138.915 342.851 138.476 342.91 138.063 343.05C137.65 343.189 137.273 343.406 136.953 343.686C136.633 343.966 136.378 344.304 136.204 344.679C136.03 345.055 135.941 345.459 135.941 345.868C135.941 346.276 136.03 346.68 136.204 347.056C136.378 347.431 136.633 347.769 136.953 348.049C137.273 348.329 137.65 348.546 138.063 348.686C138.476 348.825 138.915 348.884 139.354 348.86H150.093V371.325C149.992 371.325 149.89 371.408 149.789 371.471C146.149 373.442 140.267 375.297 134.925 376.713C134.564 376.814 134.255 377.032 134.052 377.328C133.849 377.624 133.767 377.977 133.82 378.324C133.873 378.671 134.058 378.989 134.341 379.22C134.625 379.452 134.988 379.581 135.365 379.585H171.256C171.616 379.562 171.957 379.425 172.222 379.196C172.487 378.968 172.659 378.662 172.71 378.33C172.762 377.997 172.689 377.658 172.505 377.37C172.32 377.081 172.034 376.86 171.696 376.744Z" fill="#E0E0E0"/>
<path d="M173.352 229.893H133.28C130.056 229.893 127.443 232.325 127.443 235.323V246.404C127.443 249.402 130.056 251.834 133.28 251.834H173.352C176.576 251.834 179.189 249.402 179.189 246.404V235.323C179.189 232.325 176.576 229.893 173.352 229.893Z" fill="#35BF84"/>
<path d="M132.908 251.844V253.752C132.908 255.324 134.745 256.603 136.999 256.603H169.679C171.932 256.603 173.769 255.324 173.769 253.752V251.844H132.908Z" fill="#4CAF4F"/>
<path opacity="0.3" d="M132.908 251.844V253.752C132.908 255.324 134.745 256.603 136.999 256.603H169.679C171.932 256.603 173.769 255.324 173.769 253.752V251.844H132.908Z" fill="white"/>
</svg>
