<svg width="321" height="315" viewBox="0 0 321 315" fill="none" xmlns="http://www.w3.org/2000/svg">
<path d="M273.273 314.358C273.273 314.463 221.259 314.552 157.118 314.552C92.9774 314.552 40.9412 314.463 40.9412 314.358C40.9412 314.253 92.9474 314.163 157.118 314.163C221.289 314.163 273.273 314.26 273.273 314.358Z" fill="#263238"/>
<path d="M222.592 222.659C211.019 214.577 208.398 199.574 208.855 186.084C208.929 183.836 208.682 181.454 209.753 179.484C210.825 177.514 213.326 176.159 215.341 177.103C217.012 177.889 217.738 179.837 218.675 181.447C219.924 183.592 221.755 185.34 223.955 186.488C225.386 187.237 227.161 187.687 228.577 186.908C230.525 185.836 230.749 183.162 230.734 180.915C230.734 176.735 230.709 172.561 230.659 168.391C230.525 166.152 230.752 163.906 231.333 161.74C232.03 159.612 233.581 157.642 235.7 157.043C237.82 156.444 240.464 157.68 240.944 159.867C241.026 160.793 241.049 161.724 241.011 162.653C241.071 163.59 241.506 164.616 242.382 164.901C243.258 165.185 244.172 164.534 244.846 163.874C247.153 161.627 248.726 158.698 250.187 155.807C251.648 152.916 253.078 149.942 255.176 147.478C257.273 145.013 260.172 143.058 263.415 142.871C266.658 142.684 270.037 144.676 270.846 147.822C271.655 150.968 269.819 154.182 267.849 156.736C264.877 160.527 261.373 163.87 257.445 166.661C256.679 167.079 256.067 167.733 255.7 168.526C255.213 170.024 256.629 171.522 258.104 171.994C259.775 172.548 261.587 172.376 263.348 172.586C265.108 172.795 266.981 173.56 267.647 175.207C268.561 177.499 266.644 179.896 264.763 181.469C260.988 184.615 256.701 187.091 252.09 188.788C250.442 189.387 248.711 189.919 247.378 191.072C246.045 192.226 245.251 194.241 246.052 195.821C246.854 197.402 248.914 197.904 250.644 197.581C252.374 197.259 253.91 196.331 255.558 195.709C258.636 194.548 262.606 194.758 264.546 197.417C265.147 198.333 265.528 199.376 265.658 200.463C265.788 201.551 265.664 202.654 265.295 203.686C264.546 205.74 263.392 207.622 261.902 209.222C256.996 215.083 250.622 219.537 243.431 222.128C236.292 224.6 229.678 225.274 222.585 222.674" fill="#35BF84"/>
<path d="M267.55 144.721C267.55 144.721 267.483 144.796 267.333 144.931L266.666 145.523C266.082 146.047 265.22 146.811 264.134 147.822C261.055 150.682 258.195 153.769 255.58 157.058C253.91 159.133 252.18 161.485 250.337 164.039C248.494 166.593 246.592 169.35 244.704 172.279C242.692 175.367 240.849 178.563 239.184 181.851C238.315 183.567 237.551 185.357 236.764 187.185L234.442 192.765C231.381 199.794 228.716 206.989 226.457 214.315C224.638 220.31 223.384 226.461 222.712 232.689C222.276 236.892 222.206 241.125 222.502 245.341C222.622 246.839 222.735 247.985 222.839 248.764C222.884 249.138 222.914 249.438 222.944 249.655V249.962C222.912 249.865 222.889 249.764 222.877 249.663C222.839 249.445 222.794 249.153 222.735 248.779C222.6 248.03 222.457 246.846 222.323 245.348C221.961 241.125 221.986 236.878 222.397 232.659C223.028 226.405 224.255 220.224 226.06 214.203C228.3 206.856 230.958 199.643 234.023 192.6L236.405 187.042C237.191 185.222 237.963 183.417 238.839 181.694C240.516 178.396 242.374 175.192 244.404 172.099C246.322 169.103 248.255 166.391 250.075 163.859C251.895 161.328 253.655 158.961 255.318 156.893C257.96 153.613 260.858 150.547 263.985 147.725C265.093 146.729 265.977 145.98 266.576 145.478L267.273 144.916C267.358 144.842 267.451 144.776 267.55 144.721Z" fill="#263238"/>
<path d="M238.936 181.679C238.831 181.371 238.758 181.052 238.719 180.728C238.599 180.106 238.464 179.23 238.307 178.091C237.985 175.844 237.655 172.766 237.303 169.357C236.951 165.949 236.554 162.863 236.225 160.639C236.052 159.53 235.903 158.639 235.798 158.017C235.716 157.699 235.673 157.372 235.67 157.043C235.799 157.343 235.892 157.657 235.948 157.979C236.112 158.594 236.3 159.477 236.509 160.594C236.936 162.841 237.356 165.897 237.708 169.312C238.06 172.728 238.359 175.724 238.592 178.054C238.704 179.102 238.801 179.994 238.876 180.705C238.935 181.027 238.955 181.353 238.936 181.679Z" fill="#263238"/>
<path d="M267.759 176.301C267.395 176.38 267.024 176.426 266.651 176.436C265.902 176.503 264.838 176.593 263.52 176.743C260.883 177.028 257.258 177.552 253.28 178.301C249.303 179.05 245.73 179.896 243.161 180.548C241.88 180.878 240.846 181.177 240.165 181.38C239.801 181.509 239.424 181.599 239.041 181.649C239.387 181.475 239.748 181.332 240.12 181.222C240.824 180.975 241.842 180.631 243.116 180.263C245.67 179.514 249.243 178.623 253.235 177.859C256.617 177.212 260.03 176.737 263.46 176.436C264.786 176.324 265.857 176.279 266.606 176.264C266.991 176.237 267.377 176.25 267.759 176.301Z" fill="#263238"/>
<path d="M226.427 213.678C226.347 213.57 226.282 213.452 226.232 213.326L225.738 212.285C225.311 211.379 224.734 210.038 224.045 208.398C222.652 205.102 220.877 200.488 218.989 195.364C217.102 190.241 215.364 185.627 214.045 182.293C213.401 180.675 212.869 179.35 212.472 178.361L212.053 177.29C211.995 177.166 211.954 177.035 211.933 176.9C212.013 177.009 212.078 177.127 212.128 177.252L212.622 178.294C213.042 179.2 213.626 180.541 214.315 182.181C215.708 185.477 217.484 190.091 219.371 195.214C221.259 200.338 222.997 204.952 224.315 208.285C224.959 209.903 225.491 211.229 225.88 212.218C226.053 212.645 226.195 212.967 226.307 213.289C226.365 213.412 226.406 213.544 226.427 213.678Z" fill="#263238"/>
<path d="M264.688 201.342C264.568 201.411 264.44 201.463 264.306 201.499L263.198 201.873L259.101 203.199C255.64 204.323 250.861 205.926 245.618 207.694C240.374 209.461 235.573 211.034 232.09 212.083C230.352 212.615 228.936 213.019 227.955 213.289L226.824 213.581C226.693 213.623 226.557 213.65 226.42 213.663C226.54 213.595 226.668 213.542 226.802 213.506L227.91 213.132L232.008 211.806C235.468 210.682 240.247 209.079 245.49 207.312C250.734 205.544 255.528 203.971 259.011 202.922C260.756 202.39 262.164 201.986 263.153 201.716L264.284 201.424C264.415 201.382 264.551 201.355 264.688 201.342Z" fill="#263238"/>
<path d="M249.079 19.6456L245.221 21.0238L243.566 15.9828C240.524 6.68709 230.832 1.75088 221.926 4.88938C213.02 8.02789 208.278 18.2224 211.319 27.5181L212.975 32.5591L209.102 33.9449C207.625 34.5176 206.426 35.6374 205.754 37.0715C205.081 38.5056 204.987 40.1436 205.492 41.6451L216.225 74.4458C216.448 75.1891 216.818 75.88 217.313 76.4775C217.808 77.075 218.419 77.5669 219.107 77.924C219.796 78.281 220.55 78.4959 221.324 78.556C222.097 78.616 222.875 78.5199 223.611 78.2734L263.588 63.9741C265.084 63.4024 266.3 62.2727 266.98 60.8226C267.661 59.3726 267.752 57.7152 267.235 56.199L256.494 23.3983C256.266 22.6571 255.89 21.9695 255.39 21.3766C254.89 20.7837 254.275 20.2977 253.583 19.9474C252.891 19.5972 252.136 19.39 251.362 19.3381C250.588 19.2862 249.811 19.3908 249.079 19.6456ZM218.607 24.8889C217.787 22.4719 217.935 19.8313 219.018 17.5204C220.102 15.2095 222.037 13.4076 224.42 12.4922C225.596 12.0897 226.842 11.9283 228.082 12.0176C229.322 12.1069 230.532 12.4451 231.638 13.0121C232.745 13.579 233.726 14.3631 234.523 15.3175C235.32 16.2718 235.917 17.377 236.277 18.567L237.925 23.608L220.255 29.93L218.607 24.8889ZM241.079 53.9968L243.82 62.3712C243.871 62.5391 243.854 62.72 243.775 62.8762C243.695 63.0324 243.559 63.152 243.393 63.2101L239.551 64.5809C239.398 64.6233 239.234 64.6048 239.095 64.5294C238.955 64.454 238.85 64.3275 238.802 64.1764L236.038 55.8395C234.514 55.7565 233.051 55.2098 231.846 54.2727C230.642 53.3357 229.752 52.0529 229.296 50.5962C228.645 48.6703 228.764 46.5671 229.628 44.7269C230.492 42.8867 232.035 41.4522 233.933 40.7238C234.87 40.4036 235.862 40.2753 236.85 40.3467C237.838 40.418 238.801 40.6875 239.682 41.139C240.564 41.5906 241.345 42.2149 241.98 42.9749C242.615 43.7349 243.091 44.6149 243.378 45.5626C243.86 47.0424 243.9 48.6306 243.493 50.1327C243.086 51.6347 242.249 52.9854 241.086 54.0193L241.079 53.9968Z" fill="#35BF84"/>
<path d="M245.049 20.9339C245.049 21.0388 237.895 23.7279 228.997 26.9263C220.098 30.1247 212.84 32.694 212.802 32.6191C212.765 32.5442 219.956 29.8326 228.862 26.6267C237.768 23.4208 245.011 20.8366 245.049 20.9339Z" fill="#263238"/>
<path d="M253.543 22.3122C253.576 22.3772 253.603 22.4448 253.625 22.5144C253.685 22.6642 253.753 22.859 253.842 23.0987C254.037 23.6455 254.307 24.402 254.644 25.3458L257.52 33.7202C258.719 37.2706 260.149 41.4803 261.737 46.1543C262.486 48.4988 263.37 50.9407 264.194 53.51C264.635 54.8339 264.826 56.2285 264.756 57.6222C264.693 58.3471 264.486 59.0522 264.149 59.6971C263.789 60.3398 263.309 60.907 262.734 61.3675C261.576 62.2122 260.292 62.8671 258.929 63.3075L255.071 64.6932L247.768 67.3074L235.401 71.7118L227.049 74.648L224.802 75.3971L224.203 75.5918C224.139 75.6203 224.07 75.6381 224 75.6443C224 75.6443 224.06 75.6443 224.188 75.5544L224.772 75.3222L227.019 74.4758L235.326 71.4197L247.67 66.9254L254.959 64.2887L258.816 62.8955C260.141 62.473 261.388 61.8381 262.509 61.0154C263.044 60.5881 263.492 60.0617 263.827 59.4649C264.144 58.8685 264.336 58.2132 264.389 57.5398C264.458 56.1969 264.275 54.853 263.85 53.5774C263.041 51.0306 262.187 48.5663 261.415 46.2217C259.857 41.5402 258.419 37.3156 257.281 33.7651C256.142 30.2146 255.183 27.3608 254.524 25.3533C254.21 24.3721 253.97 23.608 253.775 23.0538L253.595 22.4545C253.573 22.4091 253.555 22.3614 253.543 22.3122Z" fill="#263238"/>
<path d="M232.45 11.9828C232.45 11.9828 232.053 11.7881 231.319 11.4884C230.272 11.0864 229.166 10.8636 228.045 10.8293C226.385 10.7723 224.732 11.0844 223.207 11.7431C221.351 12.5633 219.765 13.8899 218.63 15.5707C217.487 17.2468 216.874 19.2274 216.87 21.256C216.885 22.9187 217.137 24.5707 217.619 26.1623C218.008 27.5255 218.413 28.6116 218.682 29.3682C218.841 29.7524 218.972 30.148 219.072 30.5517C218.859 30.1924 218.681 29.8137 218.54 29.4206C218.233 28.6716 217.791 27.6079 217.356 26.2372C216.823 24.6289 216.533 22.95 216.495 21.256C216.475 19.1508 217.103 17.0902 218.293 15.3535C219.468 13.6113 221.119 12.2437 223.049 11.4135C224.622 10.7513 226.327 10.4591 228.03 10.5596C229.175 10.618 230.3 10.8845 231.349 11.3461C231.629 11.4755 231.9 11.6258 232.158 11.7956C232.264 11.8424 232.363 11.9055 232.45 11.9828Z" fill="#263238"/>
<path d="M232.794 41.293C232.914 41.2206 233.039 41.158 233.169 41.1058C233.544 40.9366 233.932 40.7988 234.33 40.6938C234.961 40.5075 235.612 40.3968 236.27 40.3642C237.164 40.3162 238.059 40.4513 238.899 40.7612C240.817 41.4354 242.577 43.3904 243.446 46.0045C243.862 47.4074 243.862 48.9012 243.446 50.3041C242.984 51.8267 242.156 53.2129 241.034 54.3414L241.079 54.1392C242.075 56.8732 243.161 59.8394 244.285 62.933L244.352 63.1202L244.165 63.1877L242.449 63.7569L238.704 65.0078L238.517 65.0678L238.457 64.8805C237.431 61.7794 236.307 58.8881 235.461 56.0492L235.626 56.1766C234.161 56.0549 232.765 55.5053 231.611 54.5961C230.566 53.7917 229.71 52.7692 229.101 51.5999C228.552 50.5629 228.279 49.4022 228.307 48.2292C228.342 47.0303 228.641 45.8539 229.184 44.7843C229.727 43.7146 230.499 42.7782 231.446 42.0421C231.836 41.7257 232.273 41.4729 232.742 41.293C232.319 41.5441 231.909 41.8166 231.513 42.1095C230.473 42.9895 229.676 44.1217 229.199 45.3978C228.789 46.3601 228.597 47.4011 228.637 48.4462C228.678 49.4914 228.949 50.5146 229.431 51.4426C230.029 52.5675 230.865 53.5489 231.88 54.3189C232.982 55.1832 234.313 55.7042 235.708 55.817H235.835L235.873 55.9294C236.697 58.7158 237.828 61.6296 238.869 64.7457L238.622 64.6258L242.367 63.3749L244.075 62.7981L243.955 63.0528C242.839 59.9593 241.76 56.9855 240.772 54.2515V54.1392L240.861 54.0493C241.95 52.9676 242.762 51.6391 243.228 50.1767C243.626 48.8348 243.626 47.4064 243.228 46.0645C242.412 43.5477 240.727 41.6376 238.899 40.9635C238.09 40.6515 237.226 40.5063 236.36 40.5365C235.713 40.5513 235.069 40.6393 234.442 40.7987C233.326 41.0758 232.802 41.3305 232.794 41.293Z" fill="#263238"/>
<path d="M209.641 257.573L134.819 257.228C130.498 257.204 126.363 255.466 123.323 252.396C120.282 249.326 118.584 245.175 118.602 240.854L119.396 53.2852C119.405 51.1444 119.836 49.0264 120.663 47.0522C121.491 45.078 122.7 43.2863 124.221 41.7795C125.742 40.2728 127.544 39.0805 129.526 38.2708C131.508 37.4611 133.63 37.05 135.77 37.0608L210.585 37.4054C214.906 37.4272 219.042 39.1631 222.084 42.2318C225.126 45.3005 226.825 49.4511 226.809 53.772L226.015 241.333C226.007 243.475 225.576 245.593 224.748 247.568C223.921 249.543 222.712 251.336 221.192 252.844C219.671 254.352 217.869 255.546 215.887 256.357C213.905 257.168 211.783 257.581 209.641 257.573Z" fill="#455A64"/>
<path d="M210.473 43.8546H195.971C195.498 43.8634 195.031 43.9653 194.597 44.1545C194.164 44.3437 193.771 44.6165 193.443 44.9574C193.115 45.2982 192.857 45.7004 192.684 46.1409C192.511 46.5815 192.427 47.0518 192.436 47.5249V50.1541C192.445 50.6269 192.36 51.0968 192.187 51.5369C192.014 51.977 191.756 52.3787 191.428 52.719C191.099 53.0592 190.707 53.3313 190.273 53.5197C189.84 53.7081 189.373 53.8091 188.9 53.8169L160.631 53.6896C159.675 53.6641 158.768 53.2601 158.109 52.5663C157.45 51.8725 157.094 50.9457 157.118 49.9893V47.3601C157.142 46.405 156.787 45.4793 156.13 44.7857C155.473 44.0922 154.568 43.6873 153.613 43.6599H148.512L135.815 43.5999C132.795 43.582 129.891 44.7613 127.739 46.8798C125.587 48.9983 124.362 51.8833 124.332 54.903L123.583 237.985C123.576 239.483 123.865 240.968 124.432 242.355C124.999 243.741 125.833 245.003 126.888 246.067C127.942 247.131 129.196 247.977 130.577 248.557C131.959 249.137 133.441 249.438 134.939 249.445L209.604 249.79C211.103 249.797 212.589 249.508 213.976 248.941C215.364 248.374 216.626 247.539 217.691 246.483C218.756 245.428 219.603 244.174 220.183 242.791C220.763 241.409 221.065 239.926 221.072 238.427L221.821 55.345C221.839 52.3167 220.653 49.4052 218.525 47.2506C216.397 45.0959 213.501 43.8744 210.473 43.8546Z" fill="white"/>
<path d="M200.428 225.364L144.909 225.124C144.332 225.124 143.868 224.495 143.875 223.731L143.935 209.207C143.935 208.458 144.407 207.813 144.984 207.813L200.503 208.068C200.823 208.123 201.109 208.3 201.301 208.561C201.494 208.822 201.578 209.147 201.537 209.469L201.484 223.978C201.484 224.749 201.005 225.371 200.428 225.364Z" fill="#35BF84"/>
<path d="M162.476 220.177C162.053 220.177 161.646 220.11 161.256 219.974C160.871 219.833 160.573 219.654 160.362 219.437L160.597 218.974C160.798 219.169 161.066 219.334 161.402 219.47C161.744 219.6 162.102 219.665 162.476 219.665C162.834 219.665 163.124 219.622 163.346 219.535C163.574 219.443 163.739 219.321 163.842 219.169C163.95 219.017 164.004 218.849 164.004 218.665C164.004 218.443 163.939 218.264 163.809 218.128C163.685 217.993 163.519 217.887 163.313 217.811C163.107 217.73 162.88 217.659 162.63 217.6C162.381 217.54 162.132 217.478 161.882 217.413C161.633 217.342 161.402 217.25 161.191 217.136C160.985 217.022 160.817 216.873 160.687 216.689C160.562 216.499 160.5 216.253 160.5 215.949C160.5 215.667 160.573 215.41 160.719 215.177C160.871 214.938 161.102 214.748 161.411 214.607C161.72 214.461 162.115 214.388 162.598 214.388C162.918 214.388 163.235 214.434 163.549 214.526C163.864 214.613 164.135 214.735 164.362 214.892L164.159 215.372C163.915 215.209 163.655 215.09 163.378 215.014C163.107 214.938 162.844 214.9 162.59 214.9C162.248 214.9 161.966 214.946 161.744 215.038C161.522 215.131 161.356 215.255 161.248 215.412C161.145 215.564 161.093 215.738 161.093 215.933C161.093 216.155 161.156 216.334 161.28 216.47C161.411 216.605 161.579 216.711 161.785 216.787C161.996 216.863 162.226 216.93 162.476 216.99C162.725 217.05 162.972 217.115 163.216 217.185C163.465 217.256 163.693 217.348 163.899 217.462C164.11 217.57 164.278 217.716 164.403 217.901C164.533 218.085 164.598 218.326 164.598 218.624C164.598 218.901 164.522 219.158 164.37 219.397C164.219 219.63 163.986 219.82 163.671 219.966C163.362 220.107 162.964 220.177 162.476 220.177ZM165.909 220.129V214.437H166.511V220.129H165.909ZM168.363 220.129V214.437H168.859L172.786 219.381H172.526V214.437H173.12V220.129H172.624L168.704 215.185H168.965V220.129H168.363ZM177.474 220.177C177.04 220.177 176.639 220.107 176.27 219.966C175.907 219.82 175.59 219.616 175.319 219.356C175.053 219.096 174.845 218.79 174.693 218.437C174.546 218.085 174.473 217.7 174.473 217.283C174.473 216.865 174.546 216.48 174.693 216.128C174.845 215.776 175.056 215.469 175.327 215.209C175.598 214.949 175.915 214.748 176.278 214.607C176.647 214.461 177.048 214.388 177.482 214.388C177.916 214.388 178.311 214.456 178.669 214.591C179.032 214.727 179.341 214.933 179.596 215.209L179.222 215.591C178.983 215.353 178.72 215.182 178.433 215.079C178.146 214.976 177.837 214.925 177.506 214.925C177.154 214.925 176.829 214.984 176.53 215.103C176.238 215.217 175.98 215.383 175.758 215.599C175.541 215.811 175.37 216.06 175.246 216.348C175.126 216.629 175.067 216.941 175.067 217.283C175.067 217.619 175.126 217.93 175.246 218.218C175.37 218.505 175.541 218.757 175.758 218.974C175.98 219.185 176.238 219.351 176.53 219.47C176.829 219.584 177.151 219.641 177.498 219.641C177.823 219.641 178.13 219.592 178.417 219.494C178.71 219.397 178.978 219.231 179.222 218.998L179.563 219.454C179.292 219.692 178.975 219.874 178.612 219.999C178.249 220.118 177.869 220.177 177.474 220.177ZM178.986 219.381V217.283H179.563V219.454L178.986 219.381ZM185.688 220.177C184.961 220.177 184.389 219.969 183.972 219.551C183.554 219.134 183.346 218.516 183.346 217.697V214.437H183.947V217.673C183.947 218.345 184.099 218.841 184.403 219.161C184.706 219.481 185.135 219.641 185.688 219.641C186.246 219.641 186.677 219.481 186.98 219.161C187.284 218.841 187.436 218.345 187.436 217.673V214.437H188.021V217.697C188.021 218.516 187.813 219.134 187.395 219.551C186.983 219.969 186.414 220.177 185.688 220.177ZM189.834 220.129V214.437H191.965C192.447 214.437 192.862 214.515 193.209 214.673C193.556 214.824 193.822 215.047 194.006 215.339C194.196 215.627 194.29 215.976 194.29 216.388C194.29 216.789 194.196 217.136 194.006 217.429C193.822 217.716 193.556 217.939 193.209 218.096C192.862 218.253 192.447 218.332 191.965 218.332H190.168L190.436 218.047V220.129H189.834ZM190.436 218.096L190.168 217.803H191.949C192.518 217.803 192.949 217.681 193.241 217.437C193.54 217.188 193.689 216.838 193.689 216.388C193.689 215.933 193.54 215.581 193.241 215.331C192.949 215.082 192.518 214.957 191.949 214.957H190.168L190.436 214.673V218.096Z" fill="#E8E8E3"/>
<path d="M155.983 97.6737L136.718 97.5863L136.701 101.122L155.967 101.209L155.983 97.6737Z" fill="#4CAF4F"/>
<path opacity="0.1" d="M155.983 97.6737L136.718 97.5863L136.701 101.122L155.967 101.209L155.983 97.6737Z" fill="black"/>
<path d="M212.458 119.381C212.609 119.366 212.758 119.33 212.9 119.276C213.107 119.195 213.287 119.057 213.42 118.878C213.552 118.699 213.632 118.487 213.649 118.265C213.649 117.074 213.649 115.336 213.649 113.104C213.649 111.988 213.649 110.737 213.649 109.359C213.649 109.022 213.649 108.67 213.649 108.317C213.698 107.976 213.623 107.628 213.439 107.336C213.336 107.196 213.202 107.082 213.047 107.003C212.892 106.924 212.721 106.881 212.548 106.879H211.379H200.555L137.905 106.647C137.745 106.644 137.586 106.68 137.443 106.752C137.299 106.824 137.175 106.929 137.081 107.059C136.9 107.352 136.831 107.7 136.886 108.04C136.886 108.789 136.886 109.538 136.886 110.287C136.886 111.786 136.886 113.284 136.886 114.782C136.886 115.531 136.886 116.28 136.886 117.029C136.855 117.378 136.855 117.729 136.886 118.078C136.926 118.227 136.999 118.366 137.1 118.483C137.202 118.599 137.328 118.692 137.471 118.752C137.618 118.81 137.776 118.839 137.935 118.834H141.748L158.384 118.924L186.548 119.096L205.537 119.246L210.697 119.306H212.038C212.345 119.306 212.495 119.306 212.495 119.306H212.038H210.697H205.537H186.548L158.384 119.216L141.748 119.149H137.935C137.725 119.157 137.516 119.121 137.321 119.044C137.124 118.96 136.948 118.832 136.808 118.669C136.668 118.507 136.567 118.315 136.512 118.108C136.469 117.911 136.453 117.709 136.467 117.508V116.954C136.467 116.205 136.467 115.456 136.467 114.707C136.467 113.209 136.467 111.711 136.467 110.213C136.467 109.464 136.467 108.714 136.467 107.965C136.453 107.766 136.453 107.566 136.467 107.366C136.495 107.146 136.58 106.937 136.714 106.759C136.843 106.579 137.014 106.432 137.213 106.331C137.411 106.231 137.631 106.18 137.853 106.183L200.503 106.527L211.327 106.602H212.495C212.701 106.602 212.904 106.652 213.086 106.747C213.269 106.842 213.426 106.98 213.544 107.149C213.755 107.475 213.84 107.866 213.784 108.25C213.784 108.602 213.784 108.954 213.784 109.291C213.784 110.655 213.784 111.905 213.784 113.036C213.784 115.284 213.731 117.006 213.716 118.205C213.698 118.435 213.614 118.656 213.475 118.84C213.335 119.025 213.146 119.165 212.93 119.246C212.788 119.334 212.624 119.381 212.458 119.381Z" fill="#E0E0E0"/>
<path d="M177.739 110.407H142.504V113.711H177.739V110.407Z" fill="#4CAF4F"/>
<path opacity="0.2" d="M177.739 110.407H142.504V113.711H177.739V110.407Z" fill="white"/>
<path d="M155.851 129.927L136.586 129.839L136.57 133.375L155.835 133.462L155.851 129.927Z" fill="#4CAF4F"/>
<path opacity="0.1" d="M155.851 129.927L136.586 129.839L136.57 133.375L155.835 133.462L155.851 129.927Z" fill="black"/>
<path d="M211.971 151.635C212.122 151.616 212.272 151.589 212.42 151.553C212.63 151.486 212.822 151.375 212.985 151.228C213.148 151.081 213.277 150.9 213.364 150.699C213.482 150.396 213.528 150.071 213.499 149.747C213.499 149.388 213.499 148.998 213.499 148.564C213.499 147.695 213.499 146.706 213.499 145.568V140.811C213.535 140.467 213.459 140.12 213.282 139.822C213.097 139.517 212.806 139.291 212.465 139.186C212.092 139.119 211.712 139.099 211.334 139.126H200.555L138.122 138.894C137.787 138.894 137.463 139.017 137.21 139.239C136.958 139.461 136.795 139.767 136.752 140.1C136.752 140.811 136.752 141.598 136.752 142.347C136.752 143.845 136.752 145.343 136.752 146.841C136.752 147.59 136.752 148.339 136.752 149.088C136.724 149.438 136.739 149.79 136.797 150.137C136.89 150.441 137.083 150.704 137.343 150.886C137.62 151.061 137.945 151.145 138.272 151.126H139.313H141.478L158.055 151.208L186.121 151.38L205.042 151.53L210.188 151.59H205.042H186.121L158.04 151.56L141.463 151.5H138.205C137.8 151.524 137.398 151.416 137.059 151.193C136.718 150.957 136.469 150.61 136.355 150.212C136.288 149.831 136.267 149.444 136.295 149.058C136.295 148.309 136.295 147.56 136.295 146.811C136.295 145.313 136.295 143.815 136.295 142.317C136.295 141.568 136.295 140.819 136.295 140.07C136.349 139.641 136.558 139.248 136.882 138.962C137.206 138.677 137.623 138.519 138.055 138.519L200.488 138.864L211.267 138.946C211.668 138.921 212.071 138.949 212.465 139.028C212.854 139.156 213.183 139.422 213.387 139.777C213.58 140.107 213.664 140.49 213.626 140.871C213.626 141.223 213.626 141.568 213.626 141.912C213.626 143.268 213.626 144.511 213.626 145.658C213.626 146.804 213.626 147.77 213.626 148.654C213.626 149.081 213.626 149.478 213.626 149.845C213.654 150.18 213.6 150.516 213.469 150.826C213.372 151.033 213.231 151.216 213.057 151.363C212.882 151.511 212.678 151.619 212.458 151.68C212.294 151.693 212.129 151.678 211.971 151.635Z" fill="#E0E0E0"/>
<path d="M155.706 163.58L136.441 163.493L136.425 167.028L155.69 167.116L155.706 163.58Z" fill="#4CAF4F"/>
<path opacity="0.1" d="M155.706 163.58L136.441 163.493L136.425 167.028L155.69 167.116L155.706 163.58Z" fill="black"/>
<path d="M211.821 185.275C211.972 185.257 212.122 185.229 212.27 185.192C212.479 185.126 212.671 185.016 212.833 184.87C212.996 184.724 213.126 184.546 213.214 184.346C213.332 184.043 213.378 183.718 213.349 183.394C213.349 183.027 213.349 182.645 213.349 182.203C213.349 181.342 213.349 180.346 213.349 179.207V174.451C213.385 174.106 213.309 173.76 213.132 173.462C212.943 173.162 212.653 172.939 212.315 172.833C211.943 172.764 211.563 172.741 211.184 172.766H200.406L137.973 172.533C137.637 172.534 137.313 172.657 137.06 172.879C136.808 173.1 136.645 173.406 136.602 173.739C136.602 174.488 136.602 175.237 136.602 175.986C136.602 177.484 136.602 178.983 136.602 180.481C136.602 181.23 136.602 181.979 136.602 182.728C136.574 183.075 136.589 183.425 136.647 183.769C136.736 184.075 136.93 184.339 137.194 184.518C137.468 184.698 137.795 184.782 138.122 184.758H141.381L157.957 184.848L186.024 185.02L204.945 185.17L210.091 185.23H204.945H186.024L157.957 185.147L141.381 185.08H138.122C137.717 185.107 137.314 184.999 136.976 184.773C136.635 184.537 136.387 184.19 136.272 183.791C136.205 183.411 136.185 183.023 136.212 182.638C136.212 181.889 136.212 181.14 136.212 180.391C136.212 178.893 136.212 177.395 136.212 175.897C136.212 175.147 136.212 174.398 136.212 173.612C136.265 173.184 136.473 172.791 136.795 172.505C137.118 172.22 137.534 172.062 137.965 172.061L200.398 172.406L211.177 172.488C211.578 172.464 211.981 172.491 212.375 172.571C212.764 172.698 213.093 172.965 213.297 173.32C213.49 173.65 213.574 174.033 213.536 174.413C213.536 174.765 213.536 175.118 213.536 175.455C213.536 176.81 213.536 178.054 213.536 179.2C213.536 180.346 213.536 181.312 213.536 182.196C213.536 182.623 213.536 183.02 213.536 183.387C213.565 183.722 213.511 184.059 213.379 184.368C213.282 184.575 213.141 184.758 212.967 184.906C212.792 185.053 212.588 185.161 212.368 185.222C212.192 185.282 212.005 185.3 211.821 185.275Z" fill="#E0E0E0"/>
<path d="M176.987 143.595L141.752 143.435L141.737 146.739L176.972 146.898L176.987 143.595Z" fill="#4CAF4F"/>
<path opacity="0.2" d="M176.987 143.595L141.752 143.435L141.737 146.739L176.972 146.898L176.987 143.595Z" fill="white"/>
<path d="M144.939 179.162C144.917 179.464 144.807 179.752 144.622 179.991C144.438 180.23 144.187 180.41 143.902 180.509C143.616 180.607 143.308 180.619 143.015 180.544C142.723 180.468 142.459 180.309 142.256 180.085C142.053 179.861 141.921 179.582 141.875 179.284C141.829 178.985 141.872 178.68 141.998 178.405C142.124 178.131 142.328 177.899 142.585 177.739C142.841 177.58 143.139 177.499 143.441 177.507C143.858 177.53 144.249 177.717 144.53 178.027C144.81 178.337 144.957 178.745 144.939 179.162Z" fill="#4CAF4F"/>
<path d="M149.71 179.185C149.725 179.396 149.696 179.608 149.625 179.807C149.555 180.007 149.444 180.19 149.299 180.345C149.155 180.499 148.98 180.623 148.786 180.707C148.592 180.792 148.383 180.835 148.171 180.835C147.959 180.835 147.75 180.792 147.556 180.707C147.362 180.623 147.187 180.499 147.043 180.345C146.898 180.19 146.787 180.007 146.716 179.807C146.646 179.608 146.617 179.396 146.632 179.185C146.617 178.974 146.646 178.762 146.716 178.562C146.787 178.363 146.898 178.18 147.043 178.025C147.187 177.87 147.362 177.747 147.556 177.662C147.75 177.578 147.959 177.534 148.171 177.534C148.383 177.534 148.592 177.578 148.786 177.662C148.98 177.747 149.155 177.87 149.299 178.025C149.444 178.18 149.555 178.363 149.625 178.562C149.696 178.762 149.725 178.974 149.71 179.185Z" fill="#4CAF4F"/>
<path d="M154.489 179.207C154.467 179.509 154.357 179.797 154.172 180.036C153.988 180.275 153.737 180.455 153.452 180.554C153.166 180.652 152.858 180.664 152.565 180.589C152.273 180.513 152.009 180.354 151.806 180.13C151.603 179.906 151.471 179.627 151.425 179.329C151.379 179.03 151.422 178.724 151.548 178.45C151.674 178.175 151.878 177.944 152.135 177.784C152.391 177.625 152.689 177.544 152.991 177.552C153.407 177.577 153.798 177.764 154.078 178.074C154.358 178.383 154.505 178.79 154.489 179.207Z" fill="#4CAF4F"/>
<path d="M159.26 179.23C159.238 179.531 159.128 179.819 158.944 180.059C158.759 180.298 158.509 180.478 158.223 180.576C157.938 180.674 157.629 180.686 157.337 180.611C157.044 180.536 156.78 180.376 156.577 180.152C156.375 179.928 156.242 179.65 156.196 179.351C156.15 179.052 156.193 178.747 156.319 178.472C156.446 178.198 156.65 177.966 156.906 177.807C157.163 177.647 157.46 177.566 157.762 177.574C158.179 177.599 158.569 177.787 158.849 178.096C159.129 178.406 159.277 178.813 159.26 179.23Z" fill="#4CAF4F"/>
<path d="M164.032 179.245C164.011 179.547 163.902 179.836 163.719 180.076C163.535 180.316 163.285 180.497 162.999 180.597C162.714 180.696 162.405 180.709 162.112 180.635C161.819 180.56 161.554 180.401 161.351 180.177C161.147 179.954 161.014 179.675 160.968 179.376C160.921 179.077 160.964 178.771 161.09 178.496C161.216 178.221 161.42 177.99 161.677 177.83C161.933 177.67 162.231 177.589 162.534 177.597C162.949 177.622 163.338 177.808 163.618 178.116C163.898 178.424 164.046 178.829 164.032 179.245Z" fill="#4CAF4F"/>
<path d="M168.811 179.267C168.79 179.567 168.683 179.855 168.501 180.095C168.319 180.334 168.071 180.516 167.787 180.616C167.504 180.717 167.197 180.733 166.905 180.661C166.613 180.59 166.348 180.434 166.142 180.214C165.937 179.994 165.801 179.719 165.75 179.422C165.7 179.126 165.737 178.821 165.857 178.545C165.978 178.269 166.176 178.035 166.428 177.87C166.68 177.706 166.974 177.619 167.275 177.619C167.697 177.635 168.096 177.817 168.383 178.126C168.671 178.435 168.825 178.845 168.811 179.267Z" fill="#4CAF4F"/>
<path d="M173.582 179.29C173.597 179.501 173.568 179.713 173.498 179.912C173.427 180.112 173.316 180.295 173.171 180.45C173.027 180.604 172.852 180.728 172.658 180.812C172.464 180.897 172.255 180.94 172.043 180.94C171.831 180.94 171.622 180.897 171.428 180.812C171.234 180.728 171.059 180.604 170.915 180.45C170.77 180.295 170.659 180.112 170.589 179.912C170.518 179.713 170.489 179.501 170.504 179.29C170.489 179.078 170.518 178.867 170.589 178.667C170.659 178.467 170.77 178.285 170.915 178.13C171.059 177.975 171.234 177.852 171.428 177.767C171.622 177.683 171.831 177.639 172.043 177.639C172.255 177.639 172.464 177.683 172.658 177.767C172.852 177.852 173.027 177.975 173.171 178.13C173.316 178.285 173.427 178.467 173.498 178.667C173.568 178.867 173.597 179.078 173.582 179.29Z" fill="#4CAF4F"/>
<path d="M178.354 179.312C178.333 179.612 178.226 179.9 178.044 180.14C177.862 180.379 177.614 180.561 177.33 180.661C177.047 180.762 176.74 180.778 176.448 180.706C176.155 180.635 175.89 180.479 175.685 180.259C175.48 180.039 175.344 179.764 175.293 179.467C175.243 179.171 175.28 178.866 175.4 178.59C175.52 178.314 175.719 178.08 175.971 177.915C176.223 177.751 176.517 177.663 176.818 177.664C177.24 177.68 177.639 177.862 177.926 178.171C178.214 178.48 178.368 178.89 178.354 179.312Z" fill="#4CAF4F"/>
<path d="M183.125 179.335C183.104 179.636 182.995 179.925 182.812 180.166C182.628 180.406 182.378 180.587 182.092 180.687C181.807 180.786 181.498 180.799 181.205 180.725C180.912 180.65 180.647 180.491 180.444 180.267C180.24 180.043 180.107 179.765 180.061 179.466C180.014 179.167 180.057 178.861 180.183 178.586C180.309 178.311 180.513 178.079 180.77 177.919C181.026 177.76 181.325 177.679 181.627 177.687C182.042 177.712 182.431 177.898 182.711 178.206C182.991 178.514 183.139 178.919 183.125 179.335Z" fill="#4CAF4F"/>
<g opacity="0.2">
<path d="M144.939 179.162C144.917 179.464 144.807 179.752 144.622 179.991C144.438 180.23 144.187 180.41 143.902 180.509C143.616 180.607 143.308 180.619 143.015 180.544C142.723 180.468 142.459 180.309 142.256 180.085C142.053 179.861 141.921 179.582 141.875 179.284C141.829 178.985 141.872 178.68 141.998 178.405C142.124 178.131 142.328 177.899 142.585 177.739C142.841 177.58 143.139 177.499 143.441 177.507C143.858 177.53 144.249 177.717 144.53 178.027C144.81 178.337 144.957 178.745 144.939 179.162Z" fill="white"/>
<path d="M149.71 179.185C149.725 179.396 149.696 179.608 149.625 179.807C149.555 180.007 149.444 180.19 149.299 180.345C149.155 180.5 148.98 180.623 148.786 180.707C148.592 180.792 148.383 180.835 148.171 180.835C147.959 180.835 147.75 180.792 147.556 180.707C147.362 180.623 147.187 180.5 147.043 180.345C146.898 180.19 146.787 180.007 146.716 179.807C146.646 179.608 146.617 179.396 146.632 179.185C146.617 178.974 146.646 178.762 146.716 178.562C146.787 178.363 146.898 178.18 147.043 178.025C147.187 177.87 147.362 177.747 147.556 177.662C147.75 177.578 147.959 177.534 148.171 177.534C148.383 177.534 148.592 177.578 148.786 177.662C148.98 177.747 149.155 177.87 149.299 178.025C149.444 178.18 149.555 178.363 149.625 178.562C149.696 178.762 149.725 178.974 149.71 179.185Z" fill="white"/>
<path d="M154.489 179.207C154.467 179.509 154.357 179.797 154.173 180.036C153.988 180.275 153.738 180.455 153.452 180.554C153.166 180.652 152.858 180.664 152.565 180.589C152.273 180.513 152.009 180.354 151.806 180.13C151.603 179.906 151.471 179.627 151.425 179.329C151.379 179.03 151.422 178.724 151.548 178.45C151.674 178.175 151.878 177.944 152.135 177.784C152.391 177.625 152.689 177.544 152.991 177.552C153.408 177.577 153.798 177.764 154.078 178.074C154.358 178.383 154.506 178.79 154.489 179.207Z" fill="white"/>
<path d="M159.26 179.23C159.238 179.531 159.128 179.819 158.944 180.059C158.759 180.298 158.509 180.478 158.223 180.576C157.938 180.674 157.629 180.686 157.337 180.611C157.044 180.536 156.78 180.376 156.577 180.152C156.375 179.928 156.242 179.65 156.196 179.351C156.15 179.052 156.193 178.747 156.319 178.472C156.446 178.198 156.65 177.966 156.906 177.807C157.163 177.647 157.46 177.566 157.762 177.574C158.179 177.599 158.569 177.787 158.849 178.096C159.129 178.406 159.277 178.813 159.26 179.23Z" fill="white"/>
<path d="M164.032 179.245C164.011 179.546 163.902 179.835 163.719 180.076C163.535 180.316 163.285 180.497 162.999 180.597C162.714 180.696 162.405 180.709 162.112 180.635C161.819 180.56 161.554 180.401 161.351 180.177C161.147 179.953 161.014 179.675 160.968 179.376C160.921 179.077 160.964 178.771 161.09 178.496C161.216 178.221 161.42 177.989 161.677 177.83C161.933 177.67 162.231 177.589 162.534 177.597C162.949 177.622 163.338 177.808 163.618 178.116C163.898 178.424 164.046 178.829 164.032 179.245Z" fill="white"/>
<path d="M168.811 179.267C168.79 179.567 168.683 179.855 168.501 180.095C168.319 180.334 168.071 180.516 167.787 180.616C167.504 180.717 167.197 180.733 166.905 180.661C166.613 180.59 166.348 180.434 166.142 180.214C165.937 179.994 165.801 179.719 165.75 179.422C165.7 179.126 165.737 178.821 165.857 178.545C165.978 178.269 166.176 178.035 166.428 177.87C166.68 177.706 166.974 177.619 167.275 177.619C167.697 177.635 168.096 177.817 168.383 178.126C168.671 178.435 168.825 178.845 168.811 179.267Z" fill="white"/>
<path d="M173.582 179.29C173.597 179.501 173.568 179.713 173.498 179.912C173.427 180.112 173.316 180.295 173.171 180.45C173.027 180.604 172.852 180.728 172.658 180.812C172.464 180.897 172.255 180.94 172.043 180.94C171.831 180.94 171.622 180.897 171.428 180.812C171.234 180.728 171.059 180.604 170.915 180.45C170.77 180.295 170.659 180.112 170.589 179.912C170.518 179.713 170.489 179.501 170.504 179.29C170.489 179.078 170.518 178.867 170.589 178.667C170.659 178.467 170.77 178.285 170.915 178.13C171.059 177.975 171.234 177.852 171.428 177.767C171.622 177.683 171.831 177.639 172.043 177.639C172.255 177.639 172.464 177.683 172.658 177.767C172.852 177.852 173.027 177.975 173.171 178.13C173.316 178.285 173.427 178.467 173.498 178.667C173.568 178.867 173.597 179.078 173.582 179.29Z" fill="white"/>
<path d="M178.354 179.312C178.333 179.612 178.226 179.9 178.044 180.14C177.862 180.379 177.614 180.561 177.33 180.661C177.047 180.762 176.74 180.778 176.448 180.706C176.155 180.635 175.89 180.479 175.685 180.259C175.48 180.039 175.344 179.764 175.293 179.467C175.243 179.171 175.28 178.866 175.4 178.59C175.52 178.314 175.719 178.08 175.971 177.915C176.223 177.751 176.517 177.663 176.818 177.664C177.24 177.68 177.639 177.862 177.926 178.171C178.214 178.48 178.368 178.89 178.354 179.312Z" fill="white"/>
<path d="M183.125 179.335C183.105 179.636 182.996 179.925 182.812 180.166C182.628 180.406 182.378 180.587 182.093 180.687C181.807 180.786 181.498 180.799 181.205 180.725C180.912 180.65 180.647 180.491 180.444 180.267C180.241 180.043 180.107 179.765 180.061 179.466C180.015 179.167 180.057 178.861 180.183 178.586C180.309 178.311 180.513 178.079 180.77 177.919C181.027 177.76 181.325 177.679 181.627 177.687C182.042 177.712 182.431 177.898 182.711 178.206C182.991 178.514 183.14 178.919 183.125 179.335Z" fill="white"/>
</g>
<path d="M176.346 71.2023C176.866 70.9732 177.308 70.5961 177.615 70.1179C177.923 69.6398 178.083 69.0818 178.076 68.5132C178.096 68.1437 178.04 67.774 177.912 67.4268C177.783 67.0796 177.586 66.7621 177.331 66.4936C177.077 66.2252 176.77 66.0114 176.43 65.8653C176.09 65.7192 175.724 65.6439 175.353 65.6439C174.983 65.6439 174.617 65.7192 174.277 65.8653C173.937 66.0114 173.63 66.2252 173.376 66.4936C173.121 66.7621 172.924 67.0796 172.795 67.4268C172.667 67.774 172.611 68.1437 172.631 68.5132C172.619 69.0875 172.778 69.6522 173.088 70.1361C173.397 70.62 173.843 71.0015 174.368 71.2323C170.174 71.8615 170.361 76.4157 170.361 76.4157L180.278 76.4606C180.278 76.4606 180.511 71.824 176.346 71.2023Z" fill="#4CAF4F"/>
<path opacity="0.1" d="M176.346 71.2023C176.866 70.9732 177.308 70.5961 177.615 70.1179C177.923 69.6398 178.083 69.0818 178.076 68.5132C178.096 68.1437 178.04 67.774 177.912 67.4268C177.783 67.0796 177.586 66.7621 177.331 66.4936C177.077 66.2252 176.77 66.0114 176.43 65.8653C176.09 65.7192 175.724 65.6439 175.353 65.6439C174.983 65.6439 174.617 65.7192 174.277 65.8653C173.937 66.0114 173.63 66.2252 173.376 66.4936C173.121 66.7621 172.924 67.0796 172.795 67.4268C172.667 67.774 172.611 68.1437 172.631 68.5132C172.619 69.0875 172.778 69.6522 173.088 70.1361C173.397 70.62 173.843 71.0015 174.368 71.2323C170.174 71.8615 170.361 76.4157 170.361 76.4157L180.278 76.4606C180.278 76.4606 180.511 71.824 176.346 71.2023Z" fill="black"/>
<path d="M192.462 79.398L157.115 79.2375L157.095 83.4621L192.442 83.6225L192.462 79.398Z" fill="#4CAF4F"/>
<path opacity="0.2" d="M192.462 79.398L157.115 79.2375L157.095 83.4621L192.442 83.6225L192.462 79.398Z" fill="white"/>
<path d="M62.5137 101.292H62.1616L61.1429 101.367C60.5916 101.4 60.0434 101.472 59.5025 101.584C59.1522 101.633 58.8046 101.7 58.4613 101.786L57.3003 102.108C55.3242 102.714 53.4597 103.638 51.7798 104.842C49.5603 106.453 47.707 108.516 46.3418 110.894C45.5393 112.266 44.9008 113.726 44.4392 115.246C43.9542 116.899 43.6749 118.604 43.6078 120.325C43.5631 121.229 43.5781 122.135 43.6527 123.036C43.6527 123.493 43.78 123.95 43.84 124.415C43.8904 124.883 43.978 125.346 44.1021 125.8C44.7757 128.806 46.1424 131.613 48.0931 133.997C50.0439 136.381 52.5248 138.276 55.3378 139.53C57.3738 140.409 59.556 140.899 61.7721 140.976C64.061 141.102 66.3522 140.774 68.5135 140.01L69.1727 139.763H69.2626L69.3375 139.808L78.783 144.601L78.5058 144.841C77.4946 141.71 76.5208 138.677 75.577 135.763V135.65L75.6594 135.568C77.9508 133.26 79.6517 130.434 80.6181 127.328C81.4934 124.49 81.7488 121.496 81.3672 118.55C81.0277 115.931 80.1858 113.403 78.8878 111.104C77.769 109.129 76.3256 107.357 74.6183 105.861C73.2097 104.677 71.6506 103.685 69.9817 102.91C68.7189 102.365 67.4037 101.951 66.0567 101.674L64.5586 101.426L63.4725 101.344L62.8133 101.299H62.5886C62.6633 101.291 62.7386 101.291 62.8133 101.299H63.4799L64.5661 101.344L66.0642 101.561C67.428 101.818 68.7611 102.217 70.0416 102.752C71.7392 103.518 73.3264 104.508 74.7606 105.696C76.4993 107.185 77.9733 108.958 79.12 110.939C80.4549 113.263 81.3226 115.826 81.6743 118.482C82.0876 121.474 81.85 124.52 80.9777 127.411C80.005 130.581 78.2777 133.467 75.9441 135.823L75.989 135.628C76.9328 138.542 77.9141 141.575 78.9328 144.699L79.0751 145.156L78.6481 144.939L69.2027 140.152H69.3674L68.6933 140.399C66.4903 141.175 64.1568 141.51 61.8246 141.388C59.5607 141.302 57.3328 140.794 55.2554 139.89C51.2927 138.193 47.9958 135.243 45.8699 131.493C44.8916 129.761 44.1771 127.893 43.7501 125.95C43.6331 125.484 43.5456 125.011 43.4879 124.535C43.428 124.063 43.3306 123.598 43.3081 123.134C43.1054 120.469 43.3871 117.789 44.1396 115.224C44.6126 113.683 45.269 112.204 46.0946 110.819C47.4924 108.419 49.3843 106.344 51.645 104.73C53.3526 103.522 55.2484 102.606 57.2554 102.018L58.4314 101.719C58.7775 101.638 59.1275 101.576 59.48 101.531C60.0266 101.43 60.5799 101.37 61.1354 101.352L62.1616 101.314C62.2783 101.298 62.3959 101.291 62.5137 101.292Z" fill="#4CAF4F"/>
<path d="M66.7832 118.759H65.3975L62.4013 114.55V111.786C62.4013 111.786 60.259 111.651 60.5137 115.269C60.7684 118.887 60.5137 117.965 60.5137 117.965C60.5137 117.965 55.967 117.965 55.5925 118.377C55.2179 118.789 55.1955 123.179 55.143 125.628C55.1143 126.219 55.2837 126.802 55.6244 127.285C55.965 127.768 56.4573 128.123 57.0231 128.295C57.1817 128.339 57.3454 128.361 57.51 128.362C58.6486 128.362 64.4387 127.441 64.4387 127.441H66.8281L66.7832 118.759Z" fill="#35BF84"/>
<path d="M70.7458 118.018L69.8919 127.486H67.5249V118.213L70.7458 118.018Z" fill="#4CAF4F"/>
<path d="M98.9772 310.77V304.365L87.4944 304.283L87.397 313.968L88.1086 314.021C91.277 314.223 104.228 314.523 106.355 313.863C108.722 313.129 98.9772 310.77 98.9772 310.77Z" fill="#35BF84"/>
<path d="M106.625 313.264C106.625 313.369 102.325 313.459 97.0296 313.459C91.7338 313.459 87.4343 313.369 87.4343 313.264C87.4343 313.159 91.7338 313.069 97.0296 313.069C102.325 313.069 106.625 313.159 106.625 313.264Z" fill="#263238"/>
<path d="M99.1796 312.081C99.0822 312.028 99.1796 311.691 99.4118 311.332C99.644 310.972 99.9586 310.822 100.034 310.897C100.108 310.972 99.9511 311.257 99.7264 311.564C99.5017 311.871 99.277 312.133 99.1796 312.081Z" fill="#263238"/>
<path d="M99.9135 312.5C99.8086 312.5 99.861 312.081 100.086 311.684C100.31 311.287 100.61 311.047 100.692 311.107C100.775 311.167 100.64 311.504 100.43 311.856C100.221 312.208 100.011 312.538 99.9135 312.5Z" fill="#263238"/>
<path d="M90.8951 313.234C90.8502 313.234 90.6779 313.099 90.4307 312.815C90.129 312.449 89.7929 312.113 89.427 311.811C89.0672 311.523 88.6386 311.335 88.1836 311.264C87.8315 311.219 87.6068 311.264 87.5843 311.219C87.5619 311.174 87.7791 311.017 88.1911 310.987C88.7348 310.975 89.2651 311.156 89.6892 311.496C90.0864 311.82 90.4215 312.214 90.6779 312.657C90.8502 312.987 90.9401 313.204 90.8951 313.234Z" fill="#263238"/>
<path d="M99.2169 310.875C99.2694 310.965 99.0746 311.189 98.745 311.309C98.4155 311.429 98.1233 311.384 98.1084 311.309C98.0934 311.234 98.3256 311.077 98.6102 310.972C98.8948 310.867 99.157 310.785 99.2169 310.875Z" fill="#263238"/>
<path d="M99.0371 310.253C99.0371 310.365 98.7375 310.455 98.3479 310.463C97.9584 310.47 97.6513 310.38 97.6588 310.275C97.6663 310.171 97.9734 310.073 98.3479 310.066C98.7225 310.058 99.0221 310.148 99.0371 310.253Z" fill="#263238"/>
<path d="M127.254 310.77V304.365L115.771 304.283L115.673 313.871L116.385 313.923C119.553 314.126 132.512 314.523 134.632 313.863C136.999 313.129 127.254 310.77 127.254 310.77Z" fill="#35BF84"/>
<path d="M134.901 313.279C134.901 313.384 130.609 313.474 125.306 313.474C120.003 313.474 115.718 313.384 115.718 313.279C115.718 313.174 120.01 313.084 125.306 313.084C130.602 313.084 134.901 313.174 134.901 313.279Z" fill="#263238"/>
<path d="M127.456 312.081C127.366 312.028 127.456 311.691 127.688 311.332C127.92 310.972 128.235 310.822 128.31 310.897C128.385 310.972 128.227 311.257 128.003 311.564C127.778 311.871 127.553 312.133 127.456 312.081Z" fill="#263238"/>
<path d="M128.19 312.5C128.093 312.5 128.137 312.081 128.37 311.684C128.602 311.287 128.894 311.047 128.976 311.107C129.059 311.167 128.916 311.504 128.707 311.856C128.497 312.208 128.295 312.538 128.19 312.5Z" fill="#263238"/>
<path d="M119.171 313.234C119.127 313.234 118.962 313.099 118.707 312.815C118.405 312.449 118.069 312.113 117.703 311.811C117.344 311.523 116.915 311.335 116.46 311.264C116.115 311.219 115.883 311.264 115.861 311.219C115.838 311.174 116.055 311.017 116.467 310.987C117.011 310.975 117.542 311.156 117.966 311.496C118.365 311.818 118.7 312.212 118.954 312.657C119.127 312.987 119.216 313.204 119.171 313.234Z" fill="#263238"/>
<path d="M127.493 310.875C127.546 310.965 127.351 311.189 127.021 311.309C126.692 311.429 126.4 311.384 126.385 311.309C126.37 311.234 126.602 311.077 126.887 310.972C127.171 310.867 127.433 310.785 127.493 310.875Z" fill="#263238"/>
<path d="M127.329 310.253C127.329 310.365 127.029 310.455 126.64 310.463C126.25 310.47 125.95 310.38 125.958 310.275C125.965 310.171 126.265 310.073 126.64 310.066C127.014 310.058 127.329 310.148 127.329 310.253Z" fill="#263238"/>
<path d="M169.56 120.587C169.26 120.28 168.519 120.43 168.519 120.43C168.593 119.998 168.593 119.558 168.519 119.126C168.384 118.707 167.44 118.789 167.44 118.789C167.396 118.436 167.396 118.079 167.44 117.726C167.447 117.647 167.431 117.569 167.392 117.5C167.353 117.432 167.294 117.377 167.223 117.344C166.776 117.162 166.297 117.075 165.815 117.089C165.238 116.677 167.575 113.404 168.444 112.355C169.313 111.306 169.155 110.49 168.384 110.49C167.852 110.49 165.125 113.636 164.286 114.692C163.448 115.748 161.223 118.684 161.148 116.34C161.073 113.995 160.129 112.228 159.538 111.928C158.946 111.628 158.317 112.333 158.639 112.984C158.922 113.725 159.098 114.501 159.163 115.291C159.244 115.92 159.216 116.559 159.081 117.179C158.832 118.332 158.494 119.464 158.069 120.565H158.009C158.009 120.565 141.665 136.242 140.482 137.358C139.426 138.362 118.183 136.167 113.921 135.718C112.472 135.506 111.01 135.406 109.546 135.418C107.696 135.501 107.366 135.763 105.524 135.785C100.87 135.837 96.2276 136.245 91.6365 137.006C89.5576 137.36 87.6158 138.277 86.0227 139.659C84.4297 141.04 83.2468 142.833 82.603 144.841C78.311 158.249 68.5883 189.986 66.873 207.813C65.5768 210.164 64.4067 212.582 63.3675 215.057C62.1615 218.338 62.4537 218.45 62.8581 218.525C63.9518 218.727 65.1952 212.84 65.6596 214.263C66.124 215.686 63.3001 221.281 64.4461 221.446C65.9442 221.656 67.1352 215.454 67.2775 214.959C67.4198 214.465 68.1614 214.622 68.0266 215.087C67.8093 215.746 65.7045 222.734 67.1727 222.959C67.9816 223.079 68.0715 221.603 68.0715 221.603C68.0715 221.603 69.5696 214.914 70.2512 215.049C70.9329 215.184 70.2063 219.132 69.8617 220.45C69.5172 221.768 69.9966 222.435 70.7007 222.113C71.18 221.888 72.3261 217.881 72.6407 216.577C72.9553 215.274 73.7418 211.664 74.7979 213.753C75.8541 215.843 77.4571 217.057 78.1162 217.087C78.2647 217.069 78.4048 217.008 78.5182 216.911C78.6317 216.814 78.7134 216.684 78.7529 216.54C78.7924 216.396 78.7878 216.243 78.7397 216.102C78.6917 215.96 78.6023 215.836 78.4832 215.746C77.9163 215.192 77.4297 214.562 77.0376 213.873C76.6882 213.337 76.4347 212.744 76.2885 212.12C75.9867 210.878 75.811 209.608 75.7642 208.33L75.6444 207.581C77.3222 199.274 82.1536 174.893 89.1272 159.32L91.9886 165.208L93.232 169.567L85.6067 188.391L118.13 187.964L113.276 169.282L119.171 149.807C125.546 149.95 141.912 150.189 144.639 148.953C148.07 147.455 165.815 125.044 165.815 125.044C166.971 124.145 168.079 123.185 169.133 122.167C169.133 122.167 170.211 121.261 169.56 120.587Z" fill="#FFBE9D"/>
<path d="M84.1759 174.481C85.1197 171.26 89.9661 155.335 89.9661 155.335C89.9661 155.335 92.348 168.316 91.7188 169.882C91.1401 171.222 90.4563 172.514 89.6739 173.747C84.1759 182.114 84.895 186.301 84.895 186.301L118.115 185.29C118.19 180.646 115.441 169.844 114.872 168.122C114.303 166.399 116.198 160.758 116.198 160.758C116.198 160.758 119.943 156.946 119.808 154.983C119.737 153.22 119.519 151.467 119.156 149.74L139.381 150.489L138.744 136.781L109.696 133.875C108.685 136.729 99.5389 135.328 99.5389 135.328C89.6664 135.658 89.0522 137.471 84.9475 140.661C80.8427 143.852 74.0488 171.238 74.0488 171.238L84.1759 174.481Z" fill="#35BF84"/>
<path d="M103.816 171.238C103.24 171.34 102.654 171.371 102.071 171.327C100.985 171.327 99.494 171.253 97.8536 171.088C96.2132 170.923 94.7301 170.691 93.674 170.481C93.0916 170.406 92.5206 170.26 91.9736 170.047C92.5593 170.047 93.1436 170.102 93.7189 170.211C94.7826 170.346 96.2582 170.533 97.8911 170.698C99.524 170.863 101.007 170.975 102.078 171.05C102.662 171.058 103.244 171.12 103.816 171.238Z" fill="#263238"/>
<path d="M106.093 168.414C105.517 168.696 104.908 168.905 104.28 169.035C101.292 169.821 98.2088 170.186 95.1196 170.121C94.4804 170.142 93.8411 170.082 93.217 169.942C93.8479 169.862 94.4839 169.829 95.1196 169.844C96.2956 169.807 97.9136 169.724 99.6963 169.515C101.479 169.305 103.067 169.005 104.191 168.766C104.815 168.599 105.451 168.481 106.093 168.414Z" fill="#263238"/>
<path d="M117.269 155.815C117.254 156.386 117.176 156.953 117.037 157.508C116.842 158.549 116.542 159.972 116.16 161.53C115.778 163.088 115.411 164.526 115.082 165.5C114.949 166.057 114.753 166.598 114.497 167.11C114.539 166.541 114.645 165.978 114.812 165.432C115.097 164.264 115.419 162.916 115.778 161.44C116.138 159.964 116.482 158.616 116.767 157.448C116.868 156.885 117.037 156.337 117.269 155.815Z" fill="#263238"/>
<path d="M84.5281 172.571C82.7953 172.303 81.0851 171.905 79.4122 171.38C77.7027 170.98 76.0253 170.454 74.3936 169.807C76.1256 170.079 77.8355 170.477 79.5095 170.998C81.2193 171.396 82.8969 171.922 84.5281 172.571Z" fill="#263238"/>
<path d="M119.516 149.575C119.233 149.624 118.945 149.624 118.662 149.575C117.88 149.495 117.111 149.311 116.377 149.028C115.152 148.568 114.037 147.856 113.103 146.939C112.169 146.022 111.437 144.919 110.954 143.703C110.421 142.364 110.193 140.923 110.288 139.485C110.321 138.3 110.676 137.145 111.314 136.145C111.763 135.471 112.433 134.975 113.209 134.744C113.416 134.687 113.631 134.659 113.846 134.662C113.995 134.662 114.07 134.662 114.07 134.662C114.07 134.662 113.756 134.662 113.254 134.864C112.542 135.127 111.938 135.62 111.539 136.265C110.52 137.868 110.235 140.796 111.321 143.53C111.827 144.819 112.618 145.977 113.636 146.916C114.47 147.684 115.43 148.303 116.475 148.744C117.455 149.131 118.475 149.41 119.516 149.575Z" fill="#263238"/>
<path d="M136.976 150.219C136.789 147.922 136.729 145.617 136.796 143.313C136.738 141.011 136.808 138.708 137.006 136.414C137.194 138.709 137.254 141.012 137.186 143.313C137.249 145.617 137.179 147.923 136.976 150.219Z" fill="#263238"/>
<path d="M109.501 134.714C109.584 133.044 109.756 131.156 109.756 131.156C109.756 131.156 113.891 130.699 114.138 126.43C114.385 122.16 114.138 112.31 114.138 112.31L106.647 108.475L98.333 115.014L99.6139 136.362L107.239 136.849C107.822 136.865 108.387 136.649 108.812 136.249C109.236 135.849 109.484 135.297 109.501 134.714Z" fill="#FFBE9D"/>
<path d="M110.243 123.051C110.243 123.051 110.243 123.134 110.175 123.231C110.12 123.302 110.048 123.358 109.965 123.394C109.883 123.431 109.793 123.447 109.703 123.441C109.224 123.441 108.76 122.887 108.595 122.242C108.517 121.93 108.517 121.603 108.595 121.291C108.61 121.155 108.659 121.025 108.738 120.912C108.816 120.8 108.922 120.708 109.044 120.647C109.145 120.605 109.258 120.605 109.359 120.647C109.434 120.684 109.494 120.745 109.531 120.819C109.584 120.947 109.531 121.029 109.531 121.021C109.531 121.014 109.531 120.947 109.456 120.872C109.417 120.818 109.36 120.781 109.295 120.767C109.23 120.753 109.162 120.764 109.104 120.797C109.012 120.852 108.936 120.93 108.882 121.023C108.829 121.116 108.799 121.221 108.797 121.329C108.734 121.607 108.734 121.896 108.797 122.175C108.947 122.759 109.351 123.231 109.711 123.276C109.781 123.286 109.853 123.281 109.921 123.261C109.989 123.242 110.053 123.209 110.108 123.164C110.198 123.104 110.228 123.044 110.243 123.051Z" fill="#EB996E"/>
<path d="M116.707 110.003C116.13 108.04 114.04 107.067 112.138 106.527C109.239 105.703 106.108 105.344 103.277 106.385C100.445 107.426 97.0446 109.254 97.0446 112.377C95.3742 112.243 94.4154 113.703 93.7563 115.516C93.3348 116.62 93.0823 117.782 93.0072 118.962C92.7975 123.051 91.6515 128.699 88.9998 131.695C87.5017 133.366 85.4269 134.519 84.573 136.602C83.8239 138.407 84.2134 140.549 83.5168 142.377C82.8951 143.987 81.5243 145.133 80.5206 146.534C79.498 148.123 78.8962 149.946 78.7718 151.831C78.6473 153.717 79.0042 155.603 79.809 157.313C80.6196 158.979 81.7609 160.462 83.1633 161.672C84.5656 162.883 86.1998 163.795 87.9661 164.354C91.465 165.418 95.196 165.455 98.715 164.459C101.356 163.827 103.82 162.606 105.921 160.886C108.071 159.13 109.547 156.685 110.1 153.965C110.632 150.908 109.778 147.8 109.142 144.759C107.149 135.148 107.718 134.647 110.235 125.725C110.295 125.568 110.325 125.403 110.37 125.246C110.415 125.089 110.438 125.014 110.468 124.894C110.539 124.541 110.577 124.183 110.58 123.823C110.212 123.96 109.813 123.989 109.43 123.906C109.046 123.824 108.694 123.634 108.415 123.358C108.135 123.065 107.94 122.701 107.851 122.305C107.761 121.91 107.78 121.497 107.906 121.111C108.082 120.69 108.346 120.31 108.679 119.996C109.012 119.682 109.407 119.442 109.838 119.291C110.67 118.947 111.561 118.767 112.378 118.385C114.108 117.561 115.306 115.853 116.123 114.063C116.794 112.822 117.001 111.383 116.707 110.003Z" fill="#263238"/>
<path d="M110.542 123.254C110.701 123.487 110.831 123.739 110.932 124.003C111.157 124.475 111.456 125.141 111.786 125.913L111.846 126.055H111.688L110.939 126.123C110.423 126.123 109.988 126.22 109.479 126.212C109.434 126.202 109.393 126.181 109.359 126.151C109.325 126.121 109.299 126.083 109.284 126.04C109.262 125.972 109.262 125.899 109.284 125.83C109.301 125.729 109.324 125.629 109.351 125.531L109.486 124.999C109.554 124.644 109.66 124.298 109.801 123.965C109.787 124.327 109.734 124.686 109.644 125.036L109.539 125.568C109.501 125.748 109.434 126.025 109.539 126.003C109.913 126.003 110.445 125.92 110.939 125.89L111.688 125.823L111.591 125.988C111.269 125.239 110.999 124.535 110.842 124.048C110.704 123.799 110.603 123.531 110.542 123.254Z" fill="#4CAF4F"/>
<path d="M84.8951 186.301L118.115 185.29L132.572 241.723L129.913 306.455H112.348L114.497 243.101L101.651 203.814L103.629 308.965L85.8764 309.227L84.0112 210.39C83.9288 207.641 83.03 201.447 83.3671 198.72L84.8951 186.301Z" fill="#263238"/>
<path d="M106.071 204.615C105.527 204.649 104.981 204.617 104.445 204.518C103.442 204.398 102.071 204.188 100.565 203.888C99.0596 203.589 97.7114 203.244 96.7376 202.967C96.2171 202.853 95.7135 202.671 95.2395 202.428C95.2395 202.315 97.6814 202.9 100.678 203.506C103.674 204.113 106.086 204.503 106.071 204.615Z" fill="#455A64"/>
<path d="M129.733 302.905C129.733 303.01 125.756 303.1 120.849 303.1C115.943 303.1 111.958 303.01 111.958 302.905C111.958 302.8 115.936 302.71 120.849 302.71C125.763 302.71 129.733 302.792 129.733 302.905Z" fill="#455A64"/>
<path d="M103.471 306.231C103.471 306.343 99.6064 306.425 94.8425 306.425C90.0785 306.425 86.2209 306.343 86.2209 306.231C86.2209 306.118 90.086 306.036 94.8425 306.036C99.5989 306.036 103.471 306.126 103.471 306.231Z" fill="#455A64"/>
<path d="M101.18 305.961C101.075 305.961 100.61 282.988 100.138 254.651C99.6665 226.315 99.3893 203.327 99.4867 203.327C99.5841 203.327 100.063 226.292 100.528 254.644C100.992 282.995 101.292 305.961 101.18 305.961Z" fill="#455A64"/>
<path d="M127.373 302.905C127.365 302.803 127.365 302.7 127.373 302.598V301.699C127.373 300.89 127.433 299.729 127.478 298.253C127.583 295.257 127.733 290.905 127.92 285.572C128.325 274.846 128.894 260.059 129.516 243.738C129.516 243.58 129.516 243.431 129.516 243.296V243.348C125.583 227.618 122.025 213.341 119.441 203.012L116.445 190.795C116.1 189.364 115.838 188.248 115.651 187.469C115.561 187.102 115.501 186.818 115.449 186.6C115.419 186.503 115.402 186.402 115.396 186.301C115.435 186.395 115.465 186.493 115.486 186.593C115.546 186.803 115.621 187.087 115.726 187.447C115.928 188.196 116.22 189.334 116.595 190.758C117.344 193.649 118.4 197.814 119.718 202.945C122.325 213.267 125.92 227.506 129.905 243.258V243.311C129.905 243.446 129.905 243.603 129.905 243.753C129.239 260.074 128.632 274.853 128.19 285.579C127.958 290.92 127.763 295.242 127.628 298.253C127.553 299.751 127.493 300.89 127.456 301.699C127.456 302.081 127.411 302.381 127.403 302.598C127.405 302.701 127.395 302.804 127.373 302.905Z" fill="#455A64"/>
<path d="M121.643 241.977C120.382 242.392 119.082 242.681 117.763 242.839C116.145 243.116 114.767 243.311 114.145 243.341V243.191C114.348 243.251 114.453 243.288 114.453 243.318C114.453 243.348 114.325 243.318 114.115 243.318H113.666L114.115 243.183C114.7 243.011 116.078 242.726 117.696 242.434C118.994 242.153 120.316 242 121.643 241.977Z" fill="#455A64"/>
<path d="M121.336 244.127C120.168 244.181 118.997 244.128 117.838 243.97C116.668 243.946 115.503 243.818 114.355 243.588C116.696 243.397 119.053 243.579 121.336 244.127Z" fill="#455A64"/>
<path opacity="0.2" d="M84.7529 187.492C85.1464 187.997 85.6419 188.414 86.2072 188.714C86.7725 189.015 87.3949 189.193 88.0337 189.237C89.3717 189.396 90.725 189.37 92.0561 189.162C100.633 188.211 109.719 187.335 118.115 185.29C107.247 185.896 95.7639 185.694 84.8953 186.301L84.7829 187.23" fill="black"/>
<g opacity="0.2">
<path d="M95.9512 202.81L102.078 226.585L101.651 203.814L95.9512 202.81Z" fill="black"/>
</g>
</svg>
