<svg width="183" height="50" viewBox="0 0 183 50" fill="none" xmlns="http://www.w3.org/2000/svg">
<g clip-path="url(#clip0_362_3483)">
<path d="M9.19819 17.7882H17.2637L1.13336 32.9152L-0.000732422 40.314H28.5085L29.7587 31.8962H15.5573L31.4652 17.332L32.5993 9.47705H5.6796L5.10739 12.8947C4.50634 16.1568 5.86377 17.7882 9.19819 17.7882Z" fill="#13271B"/>
<path d="M32.7153 40.3139H42.6026L47.8275 5.49578C48.283 2.31146 46.8775 0.719238 43.6207 0.719238H38.7351L32.7153 40.3139Z" fill="#13271B"/>
<path d="M57.482 40.3139L61.3406 14.3705C61.8738 10.9624 60.4682 9.3311 57.133 9.47694H52.2474L47.5947 40.3139H57.482ZM52.7036 6.97177H62.4748L62.707 5.49578C63.3857 2.31146 61.9802 0.719238 58.5001 0.719238H53.6145L52.7036 6.97177Z" fill="#13271B"/>
<path d="M91.1002 40.3138L93.7175 23.1281C94.3962 18.4285 93.6591 14.885 91.498 12.4968C89.3457 10.1079 85.9914 8.95256 81.445 9.02067C72.2069 9.331 66.8658 14.0304 65.4315 23.1281L62.8142 40.3138H72.5853L75.4253 21.5358C75.9583 18.6618 77.6648 17.2155 80.5341 17.2155C83.4132 17.2155 84.6249 18.6618 84.1695 21.5358L82.1238 35.5365C81.9012 36.8961 82.1629 38.0418 82.9282 38.9445C83.6845 39.8576 84.7411 40.3138 86.1081 40.3138H91.1002Z" fill="#13271B"/>
<path fill-rule="evenodd" clip-rule="evenodd" d="M5.67944 5.86523H32.5992V7.99953H5.67944V5.86523Z" fill="#35BF84"/>
<path fill-rule="evenodd" clip-rule="evenodd" d="M104.616 0.0698242V50.0697H103.398V0.0698242H104.616Z" fill="#13271B"/>
<path d="M120.01 33.3655L118.292 42.7119C118.02 44.3 117.07 45.0905 115.428 45.0905H114.038L117.887 23.6132C118.921 17.2189 122.769 13.9658 129.425 13.8539C136.354 13.749 139.057 17.5477 137.528 25.2502C136.166 33.0157 132.317 36.8634 125.989 36.8144C122.881 36.8144 120.883 35.667 120.01 33.3655ZM128.937 17.3029C124.788 17.3029 122.252 19.9753 121.323 25.3342C120.394 30.693 122.008 33.3655 126.15 33.3655C130.298 33.3655 132.834 30.693 133.763 25.3342C134.692 19.9753 133.078 17.3029 128.937 17.3029ZM147.264 23.2843C142.682 24.1028 140.007 26.3206 139.246 29.9234C138.317 34.5127 140.608 36.8144 146.119 36.8144C149.834 36.8144 152.6 36.1288 154.43 34.7646C156.26 33.3934 157.42 31.3156 157.909 28.5313L159.543 19.1847C160.088 15.6309 157.42 13.8539 151.525 13.8539C145.846 13.9098 142.654 15.9597 141.949 20.0032H145.874C146.258 18.0375 147.949 17.023 150.952 16.974C154.388 16.8622 155.946 17.7366 155.618 19.5975C155.345 21.1785 154.2 22.1371 152.181 22.4658C150.379 22.7946 148.738 23.0674 147.264 23.2843ZM154.8 24.3477L154.06 28.5313C153.459 31.9173 151.224 33.6173 147.348 33.6173C144.296 33.6173 142.969 32.428 143.381 30.0493C143.786 27.6707 145.602 26.2645 148.822 25.8238C150.624 25.607 151.958 25.3901 152.831 25.1732C153.704 24.9494 154.36 24.6765 154.8 24.3477ZM162.903 14.1826L166.507 35.0863C166.828 36.8354 166.584 38.3674 165.766 39.6827C165.005 40.9909 163.72 41.6485 161.918 41.6485H161.017L160.367 45.0905H161.268C162.791 45.0905 164.16 44.6848 165.354 43.8593C166.556 43.0408 167.757 41.6765 168.958 39.7597L182.467 14.1826H180.909C179.163 14.1826 177.906 15.0012 177.144 16.6453L169.615 31.2387L166.912 14.1826H162.903Z" fill="#35BF84"/>
</g>
<defs>
<clipPath id="clip0_362_3483">
<rect width="182.468" height="50" fill="white"/>
</clipPath>
</defs>
</svg>
