<svg width="183" height="51" viewBox="0 0 183 51" fill="none" xmlns="http://www.w3.org/2000/svg">
<path d="M9.69892 18.2574H17.7645L1.6341 33.3844L0.5 40.7832H29.0092L30.2595 32.3654H16.058L31.9659 17.8013L33.1 9.94629H6.18034L5.60812 13.3639C5.00707 16.626 6.36451 18.2574 9.69892 18.2574Z" fill="#13271B"/>
<path d="M33.2161 40.7831H43.1034L48.3283 5.96502C48.7837 2.7807 47.3782 1.18848 44.1214 1.18848H39.2358L33.2161 40.7831Z" fill="#13271B"/>
<path d="M57.9828 40.7831L61.8413 14.8397C62.3745 11.4317 60.9689 9.80034 57.6338 9.94618H52.7481L48.0955 40.7831H57.9828ZM53.2043 7.441H62.9756L63.2078 5.96502C63.8864 2.7807 62.481 1.18848 59.0008 1.18848H54.1152L53.2043 7.441Z" fill="#13271B"/>
<path d="M91.6009 40.783L94.2183 23.5973C94.8969 18.8978 94.1599 15.3542 91.9987 12.966C89.8465 10.5771 86.4921 9.42179 81.9457 9.4899C72.7076 9.80023 67.3666 14.4997 65.9323 23.5973L63.3149 40.783H73.0861L75.926 22.0051C76.4591 19.1311 78.1655 17.6847 81.0348 17.6847C83.9139 17.6847 85.1257 19.1311 84.6702 22.0051L82.6245 36.0057C82.4019 37.3654 82.6637 38.511 83.4289 39.4138C84.1852 40.3268 85.2418 40.783 86.6089 40.783H91.6009Z" fill="#13271B"/>
<path fill-rule="evenodd" clip-rule="evenodd" d="M6.18018 6.33447H33.1V8.46877H6.18018V6.33447Z" fill="white"/>
<path fill-rule="evenodd" clip-rule="evenodd" d="M105.117 0.539062V50.5389H103.899V0.539062H105.117Z" fill="#13271B"/>
<path d="M120.511 33.8347L118.793 43.1811C118.52 44.7692 117.57 45.5597 115.929 45.5597H114.539L118.388 24.0824C119.421 17.6882 123.27 14.435 129.926 14.3232C136.855 14.2183 139.558 18.0169 138.028 25.7195C136.666 33.4849 132.818 37.3326 126.49 37.2837C123.382 37.2837 121.384 36.1363 120.511 33.8347ZM129.437 17.7721C125.288 17.7721 122.753 20.4446 121.824 25.8034C120.895 31.1622 122.509 33.8347 126.65 33.8347C130.799 33.8347 133.335 31.1622 134.264 25.8034C135.193 20.4446 133.579 17.7721 129.437 17.7721ZM147.765 23.7536C143.183 24.5721 140.508 26.7898 139.746 30.3927C138.818 34.982 141.109 37.2837 146.619 37.2837C150.335 37.2837 153.101 36.5981 154.931 35.2338C156.761 33.8626 157.92 31.7848 158.409 29.0005L160.044 19.654C160.589 16.1001 157.92 14.3232 152.025 14.3232C146.347 14.3791 143.155 16.4289 142.45 20.4725H146.375C146.759 18.5067 148.449 17.4923 151.453 17.4433C154.889 17.3314 156.447 18.2059 156.118 20.0668C155.846 21.6478 154.701 22.6063 152.682 22.935C150.88 23.2639 149.239 23.5367 147.765 23.7536ZM155.301 24.817L154.561 29.0005C153.96 32.3865 151.725 34.0865 147.849 34.0865C144.796 34.0865 143.469 32.8973 143.881 30.5185C144.286 28.14 146.103 26.7338 149.322 26.2931C151.124 26.0762 152.458 25.8593 153.332 25.6425C154.205 25.4186 154.861 25.1457 155.301 24.817ZM163.403 14.6519L167.007 35.5556C167.329 37.3046 167.084 38.8366 166.267 40.1519C165.506 41.4601 164.221 42.1177 162.419 42.1177H161.518L160.868 45.5597H161.769C163.292 45.5597 164.661 45.154 165.855 44.3285C167.056 43.51 168.258 42.1457 169.459 40.2289L182.967 14.6519H181.41C179.664 14.6519 178.406 15.4704 177.645 17.1145L170.116 31.708L167.413 14.6519H163.403Z" fill="white"/>
</svg>
